<?xml version="1.0" encoding="UTF-8"?>
<svg version="1.1" xmlns="http://www.w3.org/2000/svg" width="256" height="256">
<path d="M0 0 C6.6 0 13.2 0 20 0 C21.98 8.91 23.96 17.82 26 27 C25.67 24.36 25.34 21.72 25 19 C26.485 19.99 26.485 19.99 28 21 C29.65 14.73 31.3 8.46 33 2 C39.6 2 46.2 2 53 2 C54.27644757 5.8293427 54.45761228 9.60790608 54.75390625 13.60546875 C54.85166603 14.86427605 54.85166603 14.86427605 54.95140076 16.14851379 C55.15866204 18.82791571 55.36064388 21.50768599 55.5625 24.1875 C55.70212635 26.00458404 55.84209613 27.82164172 55.98242188 29.63867188 C56.32559981 34.09215195 56.66404354 38.54596958 57 43 C57.66 43 58.32 43 59 43 C59.22331199 44.58129029 59.42804644 46.16521089 59.625 47.75 C59.74101563 48.63171875 59.85703125 49.5134375 59.9765625 50.421875 C60 53 60 53 58 57 C52.72 57 47.44 57 42 57 C41.01 43.635 41.01 43.635 40 30 C37.36 37.26 34.72 44.52 32 52 C27.38 52 22.76 52 18 52 C16.02 45.4 14.04 38.8 12 32 C11.09663406 34.71009782 10.83041674 36.53782605 10.71875 39.34375 C10.68136719 40.17777344 10.64398438 41.01179688 10.60546875 41.87109375 C10.57066406 42.73863281 10.53585938 43.60617188 10.5 44.5 C10.43103914 46.21891326 10.35828021 47.93767945 10.28125 49.65625 C10.23581055 50.79803711 10.23581055 50.79803711 10.18945312 51.96289062 C10 54 10 54 9 57 C4.05 57 -0.9 57 -6 57 C-4.96755981 44.06413169 -3.86123021 31.13581485 -2.63540649 18.21682739 C-2.50347341 16.82232419 -2.37291899 15.42768986 -2.2437439 14.03292847 C-2.06105578 12.06584484 -1.87245262 10.09931327 -1.68359375 8.1328125 C-1.57587646 6.99730957 -1.46815918 5.86180664 -1.35717773 4.69189453 C-1 2 -1 2 0 0 Z " fill="#000000" transform="translate(22,114)"/>
<path d="M0 0 C6.6 0 13.2 0 20 0 C21.71017455 6.10522134 23.41957599 12.21064775 25.12695312 18.31665039 C25.70851989 20.39555643 26.29055043 22.47433278 26.87304688 24.55297852 C27.70823993 27.53368027 28.54178645 30.51483814 29.375 33.49609375 C29.63748535 34.43150497 29.8999707 35.3669162 30.17041016 36.33067322 C30.41065918 37.19149002 30.6509082 38.05230682 30.8984375 38.93920898 C31.21820557 40.08171364 31.21820557 40.08171364 31.54443359 41.24729919 C32 43 32 43 32 44 C29.20807795 44.05380578 26.4171859 44.09357669 23.625 44.125 C22.8309375 44.14175781 22.036875 44.15851563 21.21875 44.17578125 C19.14507985 44.19335473 17.07116759 44.10335168 15 44 C13 42 13 42 12 40 C9.69 40 7.38 40 5 40 C4.7834375 40.928125 4.7834375 40.928125 4.5625 41.875 C4 44 4 44 3 46 C-2.61 46 -8.22 46 -14 46 C-11.87151992 37.04910694 -9.32491534 28.30013019 -6.55615234 19.53271484 C-5.86542606 17.34467222 -5.18039608 15.15490302 -4.49609375 12.96484375 C-1.14808914 2.29617828 -1.14808914 2.29617828 0 0 Z M9 15 C8.67 17.64 8.34 20.28 8 23 C10.1519437 19.77208445 10.20086443 18.71599191 10 15 C9.67 15 9.34 15 9 15 Z M10 21 C10 22.65 10 24.3 10 26 C10.33 26 10.66 26 11 26 C11 24.35 11 22.7 11 21 C10.67 21 10.34 21 10 21 Z M7 23 C8 26 8 26 8 26 Z M6 38 C6 38.33 6 38.66 6 39 C7.98 39 9.96 39 12 39 C12 38.67 12 38.34 12 38 C10.02 38 8.04 38 6 38 Z " fill="#000000" transform="translate(201,127)"/>
<path d="M0 0 C6.6 0 13.2 0 20 0 C23.96 14.52 27.92 29.04 32 44 C26.39 44 20.78 44 15 44 C13 42 13 42 12 40 C9.69 40 7.38 40 5 40 C4.67 41.32 4.34 42.64 4 44 C-1.61 44 -7.22 44 -13 44 C-11.87491476 36.12440333 -11.87491476 36.12440333 -10.89257812 33.02416992 C-10.67565308 32.3304277 -10.45872803 31.63668549 -10.23522949 30.92192078 C-10.00291626 30.19874161 -9.77060303 29.47556244 -9.53125 28.73046875 C-9.29088013 27.96825516 -9.05051025 27.20604156 -8.80285645 26.42073059 C-8.29772675 24.82240013 -7.78999734 23.22488915 -7.27978516 21.62817383 C-6.49728414 19.17899956 -5.72257848 16.72746502 -4.94921875 14.27539062 C-4.45617648 12.71860826 -3.96270225 11.16196262 -3.46875 9.60546875 C-3.12028015 8.50551826 -3.12028015 8.50551826 -2.76477051 7.38334656 C-1.11755514 2.23511028 -1.11755514 2.23511028 0 0 Z M9 15 C7.05320078 20.47621693 7.05320078 20.47621693 8 26 C9.42258812 22.17679443 10.24042276 19.08718695 10 15 C9.67 15 9.34 15 9 15 Z M10 21 C10 22.65 10 24.3 10 26 C10.33 26 10.66 26 11 26 C11 24.35 11 22.7 11 21 C10.67 21 10.34 21 10 21 Z M6 38 C6 38.33 6 38.66 6 39 C7.98 39 9.96 39 12 39 C12 38.67 12 38.34 12 38 C10.02 38 8.04 38 6 38 Z " fill="#000000" transform="translate(95,127)"/>
<path d="M0 0 C10.56 0 21.12 0 32 0 C33.18224668 3.54674003 32.89329634 5.97522995 32.5625 9.6875 C32.46066406 10.86699219 32.35882813 12.04648438 32.25390625 13.26171875 C32.17011719 14.16535156 32.08632812 15.06898438 32 16 C28.7 16 25.4 16 22 16 C25.3 16.33 28.6 16.66 32 17 C31.01 17.33 30.02 17.66 29 18 C29.01160156 19.05960938 29.02320313 20.11921875 29.03515625 21.2109375 C29.04453476 22.59895658 29.05363489 23.98697755 29.0625 25.375 C29.07087891 26.07367188 29.07925781 26.77234375 29.08789062 27.4921875 C29.11328125 32.7734375 29.11328125 32.7734375 28 35 C24.7 35 21.4 35 18 35 C18 38.3 18 41.6 18 45 C12.6251615 47.68741925 6.00925213 46 0 46 C0 30.82 0 15.64 0 0 Z M16 15 C16 16.65 16 18.3 16 20 C16.33 20 16.66 20 17 20 C17 18.35 17 16.7 17 15 C16.67 15 16.34 15 16 15 Z M18 18 C18 18.33 18 18.66 18 19 C21.3 19 24.6 19 28 19 C28 18.67 28 18.34 28 18 C24.7 18 21.4 18 18 18 Z " fill="#000000" transform="translate(131,125)"/>
<path d="M0 0 C3.63 0 7.26 0 11 0 C11.84047788 4.94313005 12.67647821 9.88699012 13.50854492 14.83154297 C13.79152958 16.50947932 14.07568393 18.18721888 14.36108398 19.86474609 C15.16136686 24.57113823 15.94321153 29.27963341 16.68457031 33.99569702 C16.960744 35.75055954 17.24620628 37.5039551 17.53320312 39.25708008 C18.37844643 45.34987555 18.37844643 45.34987555 16.6015625 48.40234375 C15.94929688 48.90894531 15.29703125 49.41554687 14.625 49.9375 C11.54143067 52.36820482 11.54143067 52.36820482 10 56 C7.36 56.33 4.72 56.66 2 57 C1.7525 56.360625 1.505 55.72125 1.25 55.0625 C0.21186805 52.80364886 0.21186805 52.80364886 -2 52.5 C-2.66 52.335 -3.32 52.17 -4 52 C-5.1875 50 -5.1875 50 -6 48 C-6.33 47.67 -6.66 47.34 -7 47 C-6.87288399 37.90933621 -5.33263021 28.88848503 -3.84326172 19.93945312 C-3.49474901 17.84341936 -3.15500429 15.74609363 -2.81640625 13.6484375 C-1.15040014 3.45120041 -1.15040014 3.45120041 0 0 Z " fill="#B40129" transform="translate(169,126)"/>
<path d="M0 0 C0 8.91 0 17.82 0 27 C-3.63 27 -7.26 27 -11 27 C-11.99 24.69 -12.98 22.38 -14 20 C-14.33 21.65 -14.66 23.3 -15 25 C-17.97 25 -20.94 25 -24 25 C-24 17.08 -24 9.16 -24 1 C-20.37 1 -16.74 1 -13 1 C-12.01 2.98 -11.02 4.96 -10 7 C-9.67 5.02 -9.34 3.04 -9 1 C-2.25 0 -2.25 0 0 0 Z M-16 15 C-15.67 16.32 -15.34 17.64 -15 19 C-14.67 18.34 -14.34 17.68 -14 17 C-14.66 16.34 -15.32 15.68 -16 15 Z " fill="#000000" transform="translate(137,85)"/>
<path d="M0 0 C1.63001953 0.01353516 1.63001953 0.01353516 3.29296875 0.02734375 C4.12441406 0.03894531 4.95585938 0.05054687 5.8125 0.0625 C6.4725 1.3825 7.1325 2.7025 7.8125 4.0625 C8.8025 3.0725 9.7925 2.0825 10.8125 1.0625 C11.15061753 10.19167337 10.23829791 18.25098901 4.58984375 25.66796875 C2.01940394 27.68477537 0.03776815 27.46121521 -3.1875 27.4375 C-4.239375 27.44523437 -5.29125 27.45296875 -6.375 27.4609375 C-9.54650728 27.01164063 -10.13713569 26.36915984 -12.1875 24.0625 C-13.1775 24.0625 -14.1675 24.0625 -15.1875 24.0625 C-15.26902344 21.52017658 -15.32823716 18.98050798 -15.375 16.4375 C-15.40013672 15.72464844 -15.42527344 15.01179688 -15.45117188 14.27734375 C-15.51716139 9.4821057 -14.9091972 6.18628364 -12.1875 2.0625 C-7.82000715 0.60666905 -4.61489372 -0.04962251 0 0 Z M8.8125 6.0625 C9.8125 8.0625 9.8125 8.0625 9.8125 8.0625 Z M-5.1875 8.0625 C-5.1875 11.0325 -5.1875 14.0025 -5.1875 17.0625 C-4.8575 17.0625 -4.5275 17.0625 -4.1875 17.0625 C-4.1875 14.0925 -4.1875 11.1225 -4.1875 8.0625 C-4.5175 8.0625 -4.8475 8.0625 -5.1875 8.0625 Z M-1.1875 9.0625 C-1.1875 11.7025 -1.1875 14.3425 -1.1875 17.0625 C-0.8575 17.0625 -0.5275 17.0625 -0.1875 17.0625 C-0.1875 14.4225 -0.1875 11.7825 -0.1875 9.0625 C-0.5175 9.0625 -0.8475 9.0625 -1.1875 9.0625 Z M-3.1875 10.0625 C-3.1875 12.0425 -3.1875 14.0225 -3.1875 16.0625 C-2.8575 16.0625 -2.5275 16.0625 -2.1875 16.0625 C-2.1875 14.0825 -2.1875 12.1025 -2.1875 10.0625 C-2.5175 10.0625 -2.8475 10.0625 -3.1875 10.0625 Z " fill="#000000" transform="translate(61.1875,84.9375)"/>
<path d="M0 0 C2.43757413 -0.02698422 4.87484915 -0.04683099 7.3125 -0.0625 C8.00279297 -0.07087891 8.69308594 -0.07925781 9.40429688 -0.08789062 C12.5483025 -0.10307906 14.99420019 -0.00193327 18 1 C17.51171875 7.0546875 17.51171875 7.0546875 17 9 C14.09907498 10.93395001 13.10325263 11.30131941 9.8125 11.625 C8.554375 11.74875 7.29625 11.8725 6 12 C6.33 14.97 6.66 17.94 7 21 C11.65052872 21.26932521 11.65052872 21.26932521 16 20 C16 18.02 16 16.04 16 14 C16.33 14 16.66 14 17 14 C17.02697137 16.60423592 17.04682489 19.20819244 17.0625 21.8125 C17.07087891 22.55048828 17.07925781 23.28847656 17.08789062 24.04882812 C17.10259828 27.29922068 17.03531702 29.89404895 16 33 C11.71 33 7.42 33 3 33 C3 32.34 3 31.68 3 31 C2.21625 30.938125 1.4325 30.87625 0.625 30.8125 C-2 30 -2 30 -3.1875 27.8125 C-3.455625 26.884375 -3.72375 25.95625 -4 25 C-4.391875 24.113125 -4.78375 23.22625 -5.1875 22.3125 C-6.66463614 16.29032956 -6.10086882 10.42086191 -3 5 C-2.34 4.01 -1.68 3.02 -1 2 C-0.67 1.34 -0.34 0.68 0 0 Z M9 22 C13 23 13 23 13 23 Z " fill="#000000" transform="translate(28,79)"/>
<path d="M0 0 C0.69287109 0.00451172 1.38574219 0.00902344 2.09960938 0.01367188 C3.79561068 0.02536844 5.49156703 0.04330076 7.1875 0.0625 C10.50536065 5.63176609 11.90998976 9.56009217 11.1875 16.0625 C10.15686926 19.22268702 8.67239885 22.0927023 7.1875 25.0625 C0.5875 25.0625 -6.0125 25.0625 -12.8125 25.0625 C-12.8125 17.1425 -12.8125 9.2225 -12.8125 1.0625 C-8.3994375 0.1798875 -4.45187247 -0.05538215 0 0 Z M-3.8125 10.0625 C-3.8125 12.7025 -3.8125 15.3425 -3.8125 18.0625 C-3.4825 18.0625 -3.1525 18.0625 -2.8125 18.0625 C-2.4825 15.4225 -2.1525 12.7825 -1.8125 10.0625 C-2.4725 10.0625 -3.1325 10.0625 -3.8125 10.0625 Z M0.1875 10.0625 C0.1875 12.3725 0.1875 14.6825 0.1875 17.0625 C0.5175 17.0625 0.8475 17.0625 1.1875 17.0625 C1.1875 14.7525 1.1875 12.4425 1.1875 10.0625 C0.8575 10.0625 0.5275 10.0625 0.1875 10.0625 Z M-1.8125 11.0625 C-1.8125 12.7125 -1.8125 14.3625 -1.8125 16.0625 C-1.4825 16.0625 -1.1525 16.0625 -0.8125 16.0625 C-0.8125 14.4125 -0.8125 12.7625 -0.8125 11.0625 C-1.1425 11.0625 -1.4725 11.0625 -1.8125 11.0625 Z " fill="#000000" transform="translate(85.8125,84.9375)"/>
<path d="M0 0 C1.34444883 0.02386596 2.68863612 0.07427407 4.03125 0.1484375 C4.70800781 0.16261719 5.38476562 0.17679687 6.08203125 0.19140625 C9.13053439 0.28159865 11.62437111 0.55447787 14.53125 1.5234375 C13.87125 4.4934375 13.21125 7.4634375 12.53125 10.5234375 C9.56125 10.5234375 6.59125 10.5234375 3.53125 10.5234375 C4.52125 12.0084375 4.52125 12.0084375 5.53125 13.5234375 C7.73850073 13.88706568 7.73850073 13.88706568 10.15625 13.7109375 C11.38214844 13.67033203 11.38214844 13.67033203 12.6328125 13.62890625 C13.25929687 13.59410156 13.88578125 13.55929688 14.53125 13.5234375 C14.61211147 15.31436941 14.67037702 17.10633378 14.71875 18.8984375 C14.77095703 20.39503906 14.77095703 20.39503906 14.82421875 21.921875 C14.67919922 23.20964844 14.67919922 23.20964844 14.53125 24.5234375 C13.54125 25.1834375 12.55125 25.8434375 11.53125 26.5234375 C11.53125 26.8534375 11.53125 27.1834375 11.53125 27.5234375 C9.40652424 27.57730379 7.28141348 27.61616821 5.15625 27.6484375 C3.97289062 27.67164062 2.78953125 27.69484375 1.5703125 27.71875 C-2.28565891 27.47093693 -2.82296838 26.16921912 -5.46875 23.5234375 C-9.83233732 16.97805652 -9.71513339 9.16132273 -9.46875 1.5234375 C-8.47875 2.8434375 -7.48875 4.1634375 -6.46875 5.5234375 C-6.1284375 4.70617187 -5.788125 3.88890625 -5.4375 3.046875 C-3.46875 0.5234375 -3.46875 0.5234375 0 0 Z M-8.46875 7.5234375 C-7.46875 9.5234375 -7.46875 9.5234375 -7.46875 9.5234375 Z M1.53125 9.5234375 C1.53125 11.8334375 1.53125 14.1434375 1.53125 16.5234375 C1.86125 16.5234375 2.19125 16.5234375 2.53125 16.5234375 C2.53125 14.2134375 2.53125 11.9034375 2.53125 9.5234375 C2.20125 9.5234375 1.87125 9.5234375 1.53125 9.5234375 Z M-1.46875 25.5234375 C2.53125 26.5234375 2.53125 26.5234375 2.53125 26.5234375 Z " fill="#000000" transform="translate(147.46875,84.4765625)"/>
<path d="M0 0 C0.87205078 -0.03287109 1.74410156 -0.06574219 2.64257812 -0.09960938 C5.05217731 -0.11998262 7.20694472 -0.07370071 9.5625 0.4375 C12.10720589 3.27546196 12.58077127 4.57875021 12.5 8.375 C11.35068577 12.12942647 10.13206629 14.44307696 7.5625 17.4375 C4.55500434 18.05953223 2.31289634 18.32310211 -0.6875 18.3125 C-1.43257812 18.333125 -2.17765625 18.35375 -2.9453125 18.375 C-4.77555864 18.42192939 -6.60665725 18.43324223 -8.4375 18.4375 C-10.97261674 14.34649616 -12.86130459 10.97475088 -12.3125 6.0625 C-10.57850678 -1.12118618 -6.3409742 0.04199321 0 0 Z M-8.4375 1.4375 C-4.4375 2.4375 -4.4375 2.4375 -4.4375 2.4375 Z M4.5625 1.4375 C8.5625 2.4375 8.5625 2.4375 8.5625 2.4375 Z " fill="#B20128" transform="translate(174.4375,107.5625)"/>
<path d="M0 0 C3.3 0 6.6 0 10 0 C10 7.92 10 15.84 10 24 C6.7 24 3.4 24 0 24 C0 16.08 0 8.16 0 0 Z " fill="#000000" transform="translate(99,86)"/>
<path d="M0 0 C0.66 0 1.32 0 2 0 C2 7.92 2 15.84 2 24 C1.34 24 0.68 24 0 24 C0 16.08 0 8.16 0 0 Z " fill="#000000" transform="translate(110,86)"/>
<path d="M0 0 C0.33 0 0.66 0 1 0 C1 14.52 1 29.04 1 44 C0.67 44 0.34 44 0 44 C0 29.48 0 14.96 0 0 Z " fill="#000000" transform="translate(129,127)"/>
<path d="M0 0 C0.66 0.33 1.32 0.66 2 1 C2 2.98 2 4.96 2 7 C1.01 7.495 1.01 7.495 0 8 C-0.33 8.99 -0.66 9.98 -1 11 C3.95 11 8.9 11 14 11 C14 11.33 14 11.66 14 12 C8.39 12 2.78 12 -3 12 C-2.01 8.04 -1.02 4.08 0 0 Z " fill="#100307" transform="translate(190,161)"/>
<path d="M0 0 C0.66 0 1.32 0 2 0 C1.03644647 13.6332574 1.03644647 13.6332574 0 20 C-0.33 20 -0.66 20 -1 20 C-1.18451025 6.3667426 -1.18451025 6.3667426 0 0 Z " fill="#630D19" transform="translate(165,128)"/>
<path d="M0 0 C0.99 0 1.98 0 3 0 C3 2.31 3 4.62 3 7 C1.68 6.67 0.36 6.34 -1 6 C-1.625 4.125 -1.625 4.125 -2 2 C-1.34 1.34 -0.68 0.68 0 0 Z " fill="#000000" transform="translate(253,167)"/>
<path d="M0 0 C1.19799449 4.14659373 0.8896192 7.99369047 0.5625 12.25 C0.48418945 13.36761719 0.48418945 13.36761719 0.40429688 14.5078125 C0.2751783 16.33894861 0.13834886 18.16953813 0 20 C-0.33 20 -0.66 20 -1 20 C-1.02888514 16.85418577 -1.04675923 13.70840531 -1.0625 10.5625 C-1.07087891 9.66466797 -1.07925781 8.76683594 -1.08789062 7.84179688 C-1.09111328 6.98779297 -1.09433594 6.13378906 -1.09765625 5.25390625 C-1.10551147 4.06776733 -1.10551147 4.06776733 -1.11352539 2.85766602 C-1 1 -1 1 0 0 Z " fill="#000000" transform="translate(34,149)"/>
<path d="M0 0 C6.6 0 13.2 0 20 0 C20 0.33 20 0.66 20 1 C13.4 1 6.8 1 0 1 C0 0.67 0 0.34 0 0 Z " fill="#000000" transform="translate(55,114)"/>
<path d="M0 0 C6.27 0 12.54 0 19 0 C19 0.33 19 0.66 19 1 C12.73 1 6.46 1 0 1 C0 0.67 0 0.34 0 0 Z " fill="#000000" transform="translate(201,125)"/>
<path d="M0 0 C6.27 0 12.54 0 19 0 C19 0.33 19 0.66 19 1 C12.73 1 6.46 1 0 1 C0 0.67 0 0.34 0 0 Z " fill="#000000" transform="translate(95,125)"/>
<path d="M0 0 C0.33 0 0.66 0 1 0 C1 4.95 1 9.9 1 15 C0.67 15 0.34 15 0 15 C-0.19517554 13.06325815 -0.38087873 11.12555991 -0.5625 9.1875 C-0.66691406 8.10855469 -0.77132812 7.02960938 -0.87890625 5.91796875 C-1 3 -1 3 0 0 Z " fill="#000000" transform="translate(61,147)"/>
<path d="M0 0 C0.33 0 0.66 0 1 0 C1.33 4.95 1.66 9.9 2 15 C-0.35119399 11.47320901 -0.21443452 9.97120515 -0.125 5.8125 C-0.10695312 4.72582031 -0.08890625 3.63914063 -0.0703125 2.51953125 C-0.04710937 1.68808594 -0.02390625 0.85664063 0 0 Z " fill="#4A0610" transform="translate(161,145)"/>
<path d="M0 0 C5.28 0 10.56 0 16 0 C16 0.33 16 0.66 16 1 C10.72 1 5.44 1 0 1 C0 0.67 0 0.34 0 0 Z " fill="#000000" transform="translate(216,172)"/>
<path d="M0 0 C5.28 0 10.56 0 16 0 C16 0.33 16 0.66 16 1 C10.72 1 5.44 1 0 1 C0 0.67 0 0.34 0 0 Z " fill="#000000" transform="translate(131,172)"/>
<path d="M0 0 C5.28 0 10.56 0 16 0 C16 0.33 16 0.66 16 1 C10.72 1 5.44 1 0 1 C0 0.67 0 0.34 0 0 Z " fill="#000000" transform="translate(110,172)"/>
<path d="M0 0 C5.28 0 10.56 0 16 0 C16 0.33 16 0.66 16 1 C10.72 1 5.44 1 0 1 C0 0.67 0 0.34 0 0 Z " fill="#000000" transform="translate(82,172)"/>
<path d="M0 0 C5.28 0 10.56 0 16 0 C16 0.33 16 0.66 16 1 C10.72 1 5.44 1 0 1 C0 0.67 0 0.34 0 0 Z " fill="#000000" transform="translate(73,111)"/>
<path d="M0 0 C4.95 0 9.9 0 15 0 C15 0.33 15 0.66 15 1 C10.05 1 5.1 1 0 1 C0 0.67 0 0.34 0 0 Z " fill="#000000" transform="translate(64,172)"/>
<path d="M0 0 C4.95 0 9.9 0 15 0 C15 0.33 15 0.66 15 1 C10.05 1 5.1 1 0 1 C0 0.67 0 0.34 0 0 Z " fill="#000000" transform="translate(16,172)"/>
<path d="M0 0 C4.62 0 9.24 0 14 0 C14 0.33 14 0.66 14 1 C9.38 1 4.76 1 0 1 C0 0.67 0 0.34 0 0 Z " fill="#000000" transform="translate(40,167)"/>
<path d="M0 0 C0.33 0 0.66 0 1 0 C1 4.29 1 8.58 1 13 C0.67 13 0.34 13 0 13 C0 8.71 0 4.42 0 0 Z " fill="#000000" transform="translate(79,143)"/>
<path d="M0 0 C0.33 0 0.66 0 1 0 C1 4.29 1 8.58 1 13 C0.67 13 0.34 13 0 13 C0 8.71 0 4.42 0 0 Z " fill="#000000" transform="translate(77,119)"/>
<path d="M0 0 C0.33 0 0.66 0 1 0 C1 3.63 1 7.26 1 11 C0.67 11 0.34 11 0 11 C0 7.37 0 3.74 0 0 Z " fill="#000000" transform="translate(78,132)"/>
<path d="M0 0 C0.33 0 0.66 0 1 0 C1 2.97 1 5.94 1 9 C-1.08954032 4.82091936 -1.16552619 4.19589427 0 0 Z " fill="#000000" transform="translate(97,101)"/>
<path d="M0 0 C0.33 0 0.66 0 1 0 C1 2.97 1 5.94 1 9 C-1.08954032 4.82091936 -1.16552619 4.19589427 0 0 Z " fill="#000000" transform="translate(71,101)"/>
<path d="M0 0 C0.33 0 0.66 0 1 0 C1 3.3 1 6.6 1 10 C0.67 10 0.34 10 0 10 C0 6.7 0 3.4 0 0 Z " fill="#000000" transform="translate(15,157)"/>
<path d="M0 0 C0.33 0 0.66 0 1 0 C1 3.3 1 6.6 1 10 C0.67 10 0.34 10 0 10 C0 6.7 0 3.4 0 0 Z " fill="#000000" transform="translate(16,147)"/>
<path d="M0 0 C0.33 0 0.66 0 1 0 C1 3.3 1 6.6 1 10 C0.67 10 0.34 10 0 10 C0 6.7 0 3.4 0 0 Z " fill="#000000" transform="translate(17,136)"/>
<path d="M0 0 C3.3 0 6.6 0 10 0 C10 0.33 10 0.66 10 1 C6.7 1 3.4 1 0 1 C0 0.67 0 0.34 0 0 Z " fill="#000000" transform="translate(99,111)"/>
<path d="M0 0 C0.33 0 0.66 0 1 0 C1 3.3 1 6.6 1 10 C0.67 10 0.34 10 0 10 C0 6.7 0 3.4 0 0 Z " fill="#010000" transform="translate(163,98)"/>
<path d="M0 0 C0.763125 0.20625 1.52625 0.4125 2.3125 0.625 C2.3125 0.955 2.3125 1.285 2.3125 1.625 C-0.3275 1.625 -2.9675 1.625 -5.6875 1.625 C-2.6875 -0.375 -2.6875 -0.375 0 0 Z " fill="#000000" transform="translate(158.6875,95.375)"/>
<path d="M0 0 C3.3 0 6.6 0 10 0 C10 0.33 10 0.66 10 1 C6.7 1 3.4 1 0 1 C0 0.67 0 0.34 0 0 Z " fill="#000000" transform="translate(33,77)"/>
<path d="M0 0 C0.33 0 0.66 0 1 0 C1 2.97 1 5.94 1 9 C0.67 9 0.34 9 0 9 C0 6.03 0 3.06 0 0 Z " fill="#000000" transform="translate(18,127)"/>
<path d="M0 0 C0.33 0 0.66 0 1 0 C1 2.97 1 5.94 1 9 C0.67 9 0.34 9 0 9 C0 6.03 0 3.06 0 0 Z " fill="#000000" transform="translate(19,117)"/>
<path d="M0 0 C2.97 0 5.94 0 9 0 C9 0.33 9 0.66 9 1 C6.03 1 3.06 1 0 1 C0 0.67 0 0.34 0 0 Z " fill="#000000" transform="translate(113,111)"/>
<path d="M0 0 C1.125 1.75 1.125 1.75 2 4 C1.125 6.25 1.125 6.25 0 8 C0 5.36 0 2.72 0 0 Z " fill="#000000" transform="translate(138,102)"/>
<path d="M0 0 C0.33 0.99 0.66 1.98 1 3 C0.34 3.99 -0.32 4.98 -1 6 C-1.042721 4.33388095 -1.04063832 2.66617115 -1 1 C-0.67 0.67 -0.34 0.34 0 0 Z " fill="#4D050E" transform="translate(188,161)"/>
<path d="M0 0 C0.33 0 0.66 0 1 0 C1 2.64 1 5.28 1 8 C0.67 8 0.34 8 0 8 C0 5.36 0 2.72 0 0 Z " fill="#000000" transform="translate(62,163)"/>
<path d="M0 0 C0.33 0 0.66 0 1 0 C1 2.31 1 4.62 1 7 C-0.0625 5.1875 -0.0625 5.1875 -1 3 C-0.67 2.01 -0.34 1.02 0 0 Z " fill="#000000" transform="translate(97,86)"/>
<path d="M0 0 C0.33 0 0.66 0 1 0 C1 2.31 1 4.62 1 7 C0.67 7 0.34 7 0 7 C0 4.69 0 2.38 0 0 Z " fill="#A20F26" transform="translate(161,160)"/>
<path d="M0 0 C0.33 0 0.66 0 1 0 C1 2.31 1 4.62 1 7 C0.67 7 0.34 7 0 7 C0 4.69 0 2.38 0 0 Z " fill="#8A142D" transform="translate(183,136)"/>
<path d="M0 0 C0.33 0 0.66 0 1 0 C1 1.98 1 3.96 1 6 C0.67 6 0.34 6 0 6 C0 4.02 0 2.04 0 0 Z " fill="#70131C" transform="translate(160,167)"/>
<path d="M0 0 C0.33 0 0.66 0 1 0 C1 1.98 1 3.96 1 6 C0.67 6 0.34 6 0 6 C0 4.02 0 2.04 0 0 Z " fill="#A80315" transform="translate(186,155)"/>
<path d="M0 0 C0.33 0 0.66 0 1 0 C1 1.98 1 3.96 1 6 C0.67 6 0.34 6 0 6 C0 4.02 0 2.04 0 0 Z " fill="#810F1C" transform="translate(185,149)"/>
<path d="M0 0 C0.33 0 0.66 0 1 0 C1 1.98 1 3.96 1 6 C0.67 6 0.34 6 0 6 C0 4.02 0 2.04 0 0 Z " fill="#A8072D" transform="translate(163,148)"/>
<path d="M0 0 C0.33 0 0.66 0 1 0 C1 1.98 1 3.96 1 6 C0.67 6 0.34 6 0 6 C0 4.02 0 2.04 0 0 Z " fill="#B50414" transform="translate(184,143)"/>
<path d="M0 0 C0.33 0 0.66 0 1 0 C1 1.98 1 3.96 1 6 C0.67 6 0.34 6 0 6 C0 4.02 0 2.04 0 0 Z " fill="#CD0127" transform="translate(182,130)"/>
<path d="M0 0 C0.33 0 0.66 0 1 0 C1 1.98 1 3.96 1 6 C0.67 6 0.34 6 0 6 C0 4.02 0 2.04 0 0 Z " fill="#000000" transform="translate(20,92)"/>
<path d="M0 0 C0.33 0 0.66 0 1 0 C1 1.98 1 3.96 1 6 C0.67 6 0.34 6 0 6 C0 4.02 0 2.04 0 0 Z " fill="#000000" transform="translate(34,91)"/>
<path d="M0 0 C0 0.99 0 1.98 0 3 C-0.66 2.67 -1.32 2.34 -2 2 C-1.34 1.34 -0.68 0.68 0 0 Z " fill="#C40D2A" transform="translate(185,174)"/>
<path d="M0 0 C0.33 0 0.66 0 1 0 C1 1.65 1 3.3 1 5 C0.67 5 0.34 5 0 5 C0 3.35 0 1.7 0 0 Z " fill="#8A0C28" transform="translate(160,113)"/>
<path d="M0 0 C0.99 1.485 0.99 1.485 2 3 C1.01 3.495 1.01 3.495 0 4 C0 2.68 0 1.36 0 0 Z " fill="#000000" transform="translate(123,106)"/>
<path d="M0 0 C0.33 1.32 0.66 2.64 1 4 C0.34 3.01 -0.32 2.02 -1 1 C-0.67 0.67 -0.34 0.34 0 0 Z " fill="#000000" transform="translate(126,86)"/>
<path d="M0 0 C1.65 0 3.3 0 5 0 C5 0.33 5 0.66 5 1 C3.35 1 1.7 1 0 1 C0 0.67 0 0.34 0 0 Z " fill="#000000" transform="translate(128,84)"/>
<path d="M0 0 C1.65 0 3.3 0 5 0 C5 0.33 5 0.66 5 1 C3.35 1 1.7 1 0 1 C0 0.67 0 0.34 0 0 Z " fill="#000000" transform="translate(152,83)"/>
<path d="M0 0 C1 4 1 4 1 4 Z " fill="#000000" transform="translate(14,167)"/>
<path d="M0 0 C1 4 1 4 1 4 Z " fill="#000000" transform="translate(233,166)"/>
<path d="M0 0 C1 4 1 4 1 4 Z " fill="#000000" transform="translate(127,166)"/>
<path d="M0 0 C1 4 1 4 1 4 Z " fill="#000000" transform="translate(231,159)"/>
<path d="M0 0 C1 4 1 4 1 4 Z " fill="#000000" transform="translate(125,159)"/>
<path d="M0 0 C1 4 1 4 1 4 Z " fill="#000000" transform="translate(36,156)"/>
<path d="M0 0 C1 4 1 4 1 4 Z " fill="#020307" transform="translate(190,154)"/>
<path d="M0 0 C1 4 1 4 1 4 Z " fill="#000000" transform="translate(84,154)"/>
<path d="M0 0 C1 4 1 4 1 4 Z " fill="#000000" transform="translate(229,152)"/>
<path d="M0 0 C1 4 1 4 1 4 Z " fill="#000000" transform="translate(123,152)"/>
<path d="M0 0 C1 4 1 4 1 4 Z " fill="#000000" transform="translate(121,145)"/>
<path d="M0 0 C1 4 1 4 1 4 Z " fill="#000000" transform="translate(226,141)"/>
<path d="M0 0 C1 4 1 4 1 4 Z " fill="#000000" transform="translate(120,141)"/>
<path d="M0 0 C1 4 1 4 1 4 Z " fill="#000002" transform="translate(195,138)"/>
<path d="M0 0 C1 4 1 4 1 4 Z " fill="#000000" transform="translate(224,134)"/>
<path d="M0 0 C1 4 1 4 1 4 Z " fill="#000000" transform="translate(118,134)"/>
<path d="M0 0 C1 4 1 4 1 4 Z " fill="#8B0A1A" transform="translate(181,126)"/>
<path d="M0 0 C1 4 1 4 1 4 Z " fill="#000000" transform="translate(50,127)"/>
<path d="M0 0 C1 4 1 4 1 4 Z " fill="#000000" transform="translate(45,124)"/>
<path d="M0 0 C1 4 1 4 1 4 Z " fill="#000000" transform="translate(51,123)"/>
<path d="M0 0 C1 4 1 4 1 4 Z " fill="#000000" transform="translate(44,120)"/>
<path d="M0 0 C1 4 1 4 1 4 Z " fill="#000000" transform="translate(52,119)"/>
<path d="M0 0 C1 4 1 4 1 4 Z " fill="#B30428" transform="translate(188,113)"/>
<path d="M0 0 C1 4 1 4 1 4 Z " fill="#000000" transform="translate(21,98)"/>
<path d="M0 0 C1 4 1 4 1 4 Z " fill="#000000" transform="translate(162,88)"/>
<path d="M0 0 C1 4 1 4 1 4 Z " fill="#000000" transform="translate(21,88)"/>
<path d="M0 0 C1 4 1 4 1 4 Z " fill="#000000" transform="translate(46,84)"/>
<path d="M0 0 C4 1 4 1 4 1 Z " fill="#000000" transform="translate(57,83)"/>
<path d="M0 0 C1 4 1 4 1 4 Z " fill="#000000" transform="translate(47,80)"/>
<path d="M0 0 C3 1 3 1 3 1 Z " fill="#991127" transform="translate(173,183)"/>
<path d="M0 0 C0.33 0.66 0.66 1.32 1 2 C0.34 1.67 -0.32 1.34 -1 1 C-0.67 0.67 -0.34 0.34 0 0 Z " fill="#7E1016" transform="translate(182,177)"/>
<path d="" fill="#000000" transform="translate(0,0)"/>
<path d="" fill="#000000" transform="translate(0,0)"/>
<path d="" fill="#000000" transform="translate(0,0)"/>
<path d="" fill="#000000" transform="translate(0,0)"/>
<path d="" fill="#000000" transform="translate(0,0)"/>
<path d="" fill="#000000" transform="translate(0,0)"/>
<path d="" fill="#020900" transform="translate(0,0)"/>
<path d="" fill="#000000" transform="translate(0,0)"/>
<path d="" fill="#000000" transform="translate(0,0)"/>
<path d="" fill="#000000" transform="translate(0,0)"/>
<path d="" fill="#000000" transform="translate(0,0)"/>
<path d="" fill="#000000" transform="translate(0,0)"/>
<path d="" fill="#00010B" transform="translate(0,0)"/>
<path d="" fill="#000000" transform="translate(0,0)"/>
<path d="" fill="#000000" transform="translate(0,0)"/>
<path d="" fill="#000000" transform="translate(0,0)"/>
<path d="" fill="#000000" transform="translate(0,0)"/>
<path d="" fill="#000000" transform="translate(0,0)"/>
<path d="" fill="#000000" transform="translate(0,0)"/>
<path d="" fill="#000002" transform="translate(0,0)"/>
<path d="" fill="#000000" transform="translate(0,0)"/>
<path d="" fill="#000002" transform="translate(0,0)"/>
<path d="" fill="#000000" transform="translate(0,0)"/>
<path d="" fill="#000000" transform="translate(0,0)"/>
<path d="" fill="#000000" transform="translate(0,0)"/>
<path d="" fill="#000000" transform="translate(0,0)"/>
<path d="" fill="#000002" transform="translate(0,0)"/>
<path d="" fill="#000000" transform="translate(0,0)"/>
<path d="" fill="#000002" transform="translate(0,0)"/>
<path d="" fill="#000000" transform="translate(0,0)"/>
<path d="" fill="#000000" transform="translate(0,0)"/>
<path d="" fill="#000000" transform="translate(0,0)"/>
<path d="" fill="#000000" transform="translate(0,0)"/>
<path d="" fill="#000002" transform="translate(0,0)"/>
<path d="" fill="#000000" transform="translate(0,0)"/>
<path d="" fill="#000000" transform="translate(0,0)"/>
<path d="" fill="#000000" transform="translate(0,0)"/>
<path d="" fill="#000000" transform="translate(0,0)"/>
<path d="" fill="#000000" transform="translate(0,0)"/>
<path d="" fill="#000000" transform="translate(0,0)"/>
<path d="M0 0 C0.66 0.66 1.32 1.32 2 2 C1.34 2 0.68 2 0 2 C0 1.34 0 0.68 0 0 Z " fill="#000000" transform="translate(141,107)"/>
<path d="" fill="#000000" transform="translate(0,0)"/>
<path d="" fill="#000000" transform="translate(0,0)"/>
<path d="M0 0 C3 1 3 1 3 1 Z " fill="#000000" transform="translate(159,84)"/>
<path d="M0 0 C3 1 3 1 3 1 Z " fill="#000000" transform="translate(146,84)"/>
<path d="M0 0 C3 1 3 1 3 1 Z " fill="#000000" transform="translate(88,84)"/>
<path d="M0 0 C3 1 3 1 3 1 Z " fill="#000000" transform="translate(52,84)"/>
<path d="M0 0 C3 1 3 1 3 1 Z " fill="#000000" transform="translate(43,78)"/>
<path d="" fill="#000000" transform="translate(0,0)"/>
<path d="" fill="#000000" transform="translate(0,0)"/>
<path d="" fill="#000000" transform="translate(0,0)"/>
<path d="" fill="#000000" transform="translate(0,0)"/>
<path d="" fill="#000000" transform="translate(0,0)"/>
<path d="" fill="#000000" transform="translate(0,0)"/>
<path d="" fill="#000002" transform="translate(0,0)"/>
<path d="" fill="#BF0B44" transform="translate(0,0)"/>
<path d="" fill="#580617" transform="translate(0,0)"/>
<path d="" fill="#AA0A0C" transform="translate(0,0)"/>
<path d="" fill="#A60025" transform="translate(0,0)"/>
<path d="" fill="#C30112" transform="translate(0,0)"/>
<path d="" fill="#A70F23" transform="translate(0,0)"/>
<path d="" fill="#C60112" transform="translate(0,0)"/>
<path d="" fill="#000000" transform="translate(0,0)"/>
<path d="M0 0 C2 1 2 1 2 1 Z " fill="#070404" transform="translate(159,110)"/>
<path d="M0 0 C2 1 2 1 2 1 Z " fill="#000000" transform="translate(89,110)"/>
<path d="M0 0 C2 1 2 1 2 1 Z " fill="#000000" transform="translate(29,110)"/>
<path d="" fill="#000000" transform="translate(0,0)"/>
<path d="" fill="#000000" transform="translate(0,0)"/>
<path d="" fill="#000000" transform="translate(0,0)"/>
<path d="" fill="#000000" transform="translate(0,0)"/>
<path d="" fill="#000000" transform="translate(0,0)"/>
<path d="M0 0 C2 1 2 1 2 1 Z " fill="#000000" transform="translate(42,90)"/>
<path d="" fill="#000000" transform="translate(0,0)"/>
<path d="" fill="#000000" transform="translate(0,0)"/>
<path d="" fill="#000000" transform="translate(0,0)"/>
<path d="M0 0 C2 1 2 1 2 1 Z " fill="#000000" transform="translate(122,84)"/>
<path d="M0 0 C2 1 2 1 2 1 Z " fill="#000000" transform="translate(63,84)"/>
<path d="M0 0 C2 1 2 1 2 1 Z " fill="#000000" transform="translate(31,78)"/>
<path d="" fill="#F11035" transform="translate(0,0)"/>
<path d="" fill="#AC0A1E" transform="translate(0,0)"/>
<path d="" fill="#7C0003" transform="translate(0,0)"/>
<path d="" fill="#B4052A" transform="translate(0,0)"/>
<path d="" fill="#A7092E" transform="translate(0,0)"/>
<path d="" fill="#DD182D" transform="translate(0,0)"/>
<path d="" fill="#C20A1F" transform="translate(0,0)"/>
<path d="" fill="#CB1227" transform="translate(0,0)"/>
<path d="" fill="#87312C" transform="translate(0,0)"/>
<path d="" fill="#9A0C2C" transform="translate(0,0)"/>
<path d="" fill="#9D0C26" transform="translate(0,0)"/>
<path d="" fill="#A8081C" transform="translate(0,0)"/>
<path d="" fill="#8E011C" transform="translate(0,0)"/>
<path d="" fill="#951321" transform="translate(0,0)"/>
<path d="" fill="#370000" transform="translate(0,0)"/>
<path d="" fill="#9B102C" transform="translate(0,0)"/>
<path d="" fill="#000000" transform="translate(0,0)"/>
<path d="" fill="#000000" transform="translate(0,0)"/>
<path d="" fill="#000000" transform="translate(0,0)"/>
<path d="" fill="#000000" transform="translate(0,0)"/>
<path d="" fill="#000000" transform="translate(0,0)"/>
<path d="" fill="#000000" transform="translate(0,0)"/>
<path d="" fill="#000000" transform="translate(0,0)"/>
<path d="" fill="#000000" transform="translate(0,0)"/>
<path d="" fill="#000000" transform="translate(0,0)"/>
<path d="" fill="#000000" transform="translate(0,0)"/>
<path d="" fill="#000000" transform="translate(0,0)"/>
<path d="" fill="#000000" transform="translate(0,0)"/>
<path d="" fill="#000000" transform="translate(0,0)"/>
<path d="" fill="#000000" transform="translate(0,0)"/>
<path d="" fill="#000000" transform="translate(0,0)"/>
<path d="" fill="#000000" transform="translate(0,0)"/>
<path d="" fill="#000000" transform="translate(0,0)"/>
<path d="" fill="#000000" transform="translate(0,0)"/>
<path d="" fill="#000000" transform="translate(0,0)"/>
<path d="" fill="#000000" transform="translate(0,0)"/>
<path d="" fill="#000000" transform="translate(0,0)"/>
<path d="" fill="#000000" transform="translate(0,0)"/>
<path d="" fill="#000000" transform="translate(0,0)"/>
</svg>
