<?xml version="1.0" encoding="UTF-8"?>
<svg version="1.1" xmlns="http://www.w3.org/2000/svg" width="276" height="276">
<path d="M0 0 C91.08 0 182.16 0 276 0 C276 91.08 276 182.16 276 276 C184.92 276 93.84 276 0 276 C0 184.92 0 93.84 0 0 Z " fill="#FAFBFB" transform="translate(0,0)"/>
<path d="M0 0 C91.08 0 182.16 0 276 0 C276 91.08 276 182.16 276 276 C184.92 276 93.84 276 0 276 C0 184.92 0 93.84 0 0 Z M134 16 C134 16.66 134 17.32 134 18 C132.8553125 18.2165625 132.8553125 18.2165625 131.6875 18.4375 C128.91827092 18.9632594 128.91827092 18.9632594 126 20 C126 20.66 126 21.32 126 22 C125.15308594 22.08507812 124.30617188 22.17015625 123.43359375 22.2578125 C119.47999867 23.11240074 116.46430807 24.78676138 113.0625 26.875 C109.50559372 29.02568752 106.03387065 31.04804929 102.18359375 32.6328125 C98.97517278 33.77769167 98.97517278 33.77769167 97 36 C94.82664466 38.17335534 92.7994413 38.93097686 89.99707031 40.08544922 C86.41408403 41.72626421 83.17420326 43.92020072 79.875 46.0625 C75.65765488 48.79392072 71.71644852 51.21157596 67 53 C65.25811222 54.11836732 65.25811222 54.11836732 63.6875 55.375 C60.55630566 57.69440322 57.34947239 59.42030974 53.83984375 61.09765625 C51.84249001 62.04245915 51.84249001 62.04245915 49.4375 63.5625 C45.59638194 65.82777475 41.42231454 67.40461252 37.3125 69.125 C33.19637783 72.46239636 31.36934291 77.40188859 30.63150215 82.5921669 C30.48999235 85.46589157 30.4705843 88.31481197 30.49829102 91.19189453 C30.49288803 92.27436462 30.48748505 93.35683472 30.48191833 94.47210693 C30.46948006 98.02595937 30.48588814 101.57899406 30.50390625 105.1328125 C30.50375117 107.61424807 30.50226073 110.09568388 30.49949646 112.57711792 C30.49811473 117.76685346 30.51063499 122.95631188 30.53344727 128.14599609 C30.56186077 134.79170131 30.55908342 141.43669186 30.54635715 148.08242989 C30.53939713 153.20230011 30.54719257 158.32206452 30.55961418 163.44192123 C30.56412341 165.89228789 30.56447012 168.34266593 30.56054878 170.7930336 C30.55763274 174.21789032 30.57416241 177.64211745 30.59594727 181.06689453 C30.59144562 182.07487091 30.58694397 183.08284729 30.58230591 184.12136841 C30.65042254 190.57911613 31.24079384 195.83541284 35.6484375 200.890625 C36.21820313 201.33921875 36.78796875 201.7878125 37.375 202.25 C37.98859375 202.73726562 38.6021875 203.22453125 39.234375 203.7265625 C41.41179661 205.29700375 43.67743467 206.65535691 46 208 C47.66666667 209.33333333 49.33333333 210.66666667 51 212 C54.33636755 214.16639973 57.46894462 215.60189893 61.25 216.8125 C66.06908759 218.49237037 69.84582869 220.72427727 73.984375 223.671875 C76.51848905 225.34164007 79.07008068 226.24873864 82 227 C82 227.66 82 228.32 82 229 C83.0725 229.495 84.145 229.99 85.25 230.5 C89.077545 232.3967763 92.53650261 234.65417725 96.0625 237.0625 C100.67155706 240.22280548 100.67155706 240.22280548 105.6875 242.625 C108.63063213 243.84667749 110.68031722 245.11107643 113.25 246.9375 C117.47758894 249.86930397 121.70122035 251.44776451 126.5625 253.0546875 C129 254 129 254 131.75 256.25 C133.95513719 258.25652323 133.95513719 258.25652323 137.1875 258.5 C146.20523452 257.31734629 153.36306712 252.7292334 160.82421875 247.8046875 C164.16112801 245.90843648 167.32026347 245.02542596 171 244 C171.33 243.34 171.66 242.68 172 242 C173.84765625 241.1484375 173.84765625 241.1484375 176.0625 240.375 C176.79597656 240.11460937 177.52945313 239.85421875 178.28515625 239.5859375 C178.85105469 239.39257812 179.41695312 239.19921875 180 239 C180 238.34 180 237.68 180 237 C180.56589844 236.72671875 181.13179687 236.4534375 181.71484375 236.171875 C184.07124175 234.96346577 186.30479776 233.633633 188.5625 232.25 C193.2203775 229.41507158 197.9892856 226.86800747 202.84765625 224.39453125 C205.30715234 223.11891801 205.30715234 223.11891801 206 220 C206.845625 219.9175 207.69125 219.835 208.5625 219.75 C212.72113491 218.84266147 215.39582699 217.23458727 219 215 C219 214.34 219 213.68 219 213 C219.56847656 212.82984375 220.13695312 212.6596875 220.72265625 212.484375 C225.9322114 210.84932263 230.35363141 208.86690828 235 206 C235 205.34 235 204.68 235 204 C235.886875 203.773125 236.77375 203.54625 237.6875 203.3125 C241.74174267 201.70610196 243.37360931 200.51222515 246 197 C246.73903836 193.27065061 246.66244702 189.59448439 246.61523438 185.80322266 C246.62355789 184.1072419 246.62355789 184.1072419 246.63204956 182.3769989 C246.64386123 178.63892248 246.61955005 174.90205421 246.59375 171.1640625 C246.59203903 168.56480973 246.59210444 165.96555523 246.59387207 163.36630249 C246.59221785 157.91719798 246.57408564 152.46853285 246.54199219 147.01953125 C246.50513754 140.73184167 246.49631187 134.44460725 246.5032897 128.15682375 C246.50961047 122.09605891 246.49859496 116.03548921 246.47932434 109.97474289 C246.47229921 107.401572 246.46916922 104.8283874 246.47001648 102.25520706 C246.46821556 98.65507592 246.44680571 95.05558639 246.41992188 91.45556641 C246.42285248 90.39455215 246.42578308 89.3335379 246.42880249 88.2403717 C246.36163316 82.40006708 245.86346382 78.13759844 243 73 C240.8201875 71.19126532 240.8201875 71.19126532 238 70 C237.35289062 69.649375 236.70578125 69.29875 236.0390625 68.9375 C232.2713325 66.9205739 230.41887978 66 226 66 C226 65.34 226 64.68 226 64 C224.00669158 62.65668346 222.00615134 61.32405988 220 60 C219.34 59.01 218.68 58.02 218 57 C214.88676531 55.18997983 212.13176036 54.03172009 208.625 53.1875 C204.67965234 51.89505852 202.32299949 50.17735518 199.1875 47.53515625 C196.87757397 45.91408316 194.5207046 44.93588714 191.91796875 43.87280273 C187.67679854 41.94278956 183.85659276 39.20927498 179.9609375 36.671875 C176.74948545 34.61356983 173.6758169 32.78650485 170.125 31.375 C167 30 167 30 165 27 C162.02078707 24.83329969 159.11126237 23.68216304 155.625 22.625 C152.36177263 21.61968943 150.17199654 20.50250301 147.5625 18.3125 C143.4004337 15.03389117 139.06900942 15.54103536 134 16 Z " fill="#081731" transform="translate(0,0)"/>
<path d="M0 0 C1.97265625 0.265625 1.97265625 0.265625 4.97265625 2.265625 C6.33390625 2.6678125 6.33390625 2.6678125 7.72265625 3.078125 C13.50011169 5.18911833 17.73635845 8.87242728 21.97265625 13.265625 C22.96265625 13.760625 22.96265625 13.760625 23.97265625 14.265625 C24.01936659 30.49450855 24.05464034 46.72337032 24.07628059 62.95230484 C24.08659538 70.48759457 24.10065957 78.02284254 24.12353516 85.55810547 C24.14346285 92.12545447 24.15637122 98.69277323 24.16083324 105.26015162 C24.16344168 108.7378773 24.16957681 112.21551646 24.18411636 115.69321442 C24.20021163 119.57446419 24.20063633 123.45562914 24.19970703 127.33691406 C24.20689758 128.49137527 24.21408813 129.64583649 24.22149658 130.83528137 C24.21874725 131.89254929 24.21599792 132.9498172 24.21316528 134.03912354 C24.21500887 134.95722935 24.21685246 135.87533516 24.21875191 136.82126236 C23.95225222 139.46828946 23.40235362 141.03346706 21.97265625 143.265625 C18.91612086 145.62749325 16.34490438 147.14622466 12.66015625 148.328125 C11.77328125 148.6375 10.88640625 148.946875 9.97265625 149.265625 C9.64265625 150.255625 9.31265625 151.245625 8.97265625 152.265625 C4.3821527 155.15522618 -0.57092263 157.06412565 -6.02734375 156.265625 C-8.85425539 153.43871336 -8.28570281 151.56621452 -8.29296875 147.61328125 C-8.29583893 146.6293766 -8.29583893 146.6293766 -8.29876709 145.62559509 C-8.30012843 144.2377789 -8.29643549 142.84994995 -8.28808594 141.4621582 C-8.27740209 139.33971439 -8.28797335 137.21812025 -8.30078125 135.09570312 C-8.29945931 133.74739397 -8.2968962 132.39908534 -8.29296875 131.05078125 C-8.29071289 129.82238525 -8.28845703 128.59398926 -8.28613281 127.32836914 C-8.02734375 124.265625 -8.02734375 124.265625 -6.02734375 121.265625 C-2.52734375 120.953125 -2.52734375 120.953125 0.97265625 121.265625 C3.90712982 124.20009857 3.43424048 127.44821956 3.59765625 131.390625 C3.63632813 132.14472656 3.675 132.89882812 3.71484375 133.67578125 C3.80916656 135.53865684 3.89200287 137.40210755 3.97265625 139.265625 C8.38787734 137.99587528 8.38787734 137.99587528 11.97265625 135.265625 C12.28479268 133.15163956 12.28479268 133.15163956 12.24681091 130.67945862 C12.25678604 129.71341705 12.26676117 128.74737549 12.27703857 127.75205994 C12.27770325 126.68862869 12.27836792 125.62519745 12.27905273 124.52954102 C12.28737625 123.41240723 12.29569977 122.29527344 12.30427551 121.14428711 C12.32845402 117.43600015 12.33715681 113.72788877 12.34375 110.01953125 C12.35270956 107.45124761 12.36183126 104.88296452 12.37110901 102.31468201 C12.38762241 96.92518491 12.3953368 91.53575895 12.39819336 86.14624023 C12.40183037 79.91353957 12.43173453 73.68133084 12.47359794 67.4487806 C12.51243667 61.45691283 12.52378516 55.46531847 12.52491951 49.47331047 C12.52913797 46.92191841 12.54163671 44.37052653 12.56243706 41.81921577 C12.58917596 38.25607104 12.58457742 34.69429601 12.57202148 31.13110352 C12.58685577 30.0696965 12.60169006 29.00828949 12.61697388 27.91471863 C12.5903252 25.27032909 12.52709795 22.85094577 11.97265625 20.265625 C9.25296205 17.74908558 6.58192925 16.93400889 2.97265625 16.265625 C2.9815387 17.37396194 2.99042114 18.48229889 2.99957275 19.6242218 C3.08057481 30.05697665 3.14058134 40.48966791 3.17990494 50.9226656 C3.20080113 56.28671156 3.22915596 61.65050417 3.27441406 67.0144043 C3.31779916 72.18855983 3.34177804 77.36247131 3.35216522 82.53679466 C3.35956978 84.51323478 3.37402878 86.48966117 3.39557648 88.4659977 C3.42451302 91.22933697 3.42861636 93.99166114 3.42675781 96.75512695 C3.44832947 97.9872718 3.44832947 97.9872718 3.47033691 99.24430847 C3.43001085 104.76654242 3.43001085 104.76654242 1.1786499 107.22331238 C-1.80287579 108.63205708 -4.83422588 109.46734553 -8.02734375 110.265625 C-8.02734375 110.925625 -8.02734375 111.585625 -8.02734375 112.265625 C-8.775 112.65234375 -9.52265625 113.0390625 -10.29296875 113.4375 C-11.2778125 113.95828125 -12.26265625 114.4790625 -13.27734375 115.015625 C-14.251875 115.52609375 -15.22640625 116.0365625 -16.23046875 116.5625 C-18.95233817 118.21995121 -20.81929713 119.99624375 -23.02734375 122.265625 C-24.6186904 122.96183916 -26.21464494 123.6501328 -27.8359375 124.2734375 C-31.79323463 126.06515492 -35.39991849 128.51523551 -39.0625 130.83984375 C-42.38186854 132.43611452 -44.39157399 132.78649414 -48.02734375 132.265625 C-50.3548372 128.77438483 -50.53033691 127.37340249 -50.02734375 123.265625 C-47.04384723 118.7255216 -42.06416788 117.54914003 -37.02734375 116.265625 C-36.36734375 116.265625 -35.70734375 116.265625 -35.02734375 116.265625 C-35.02734375 115.605625 -35.02734375 114.945625 -35.02734375 114.265625 C-32.96699054 112.89007127 -30.92014809 111.62491701 -28.77734375 110.390625 C-24.71230149 108.04094123 -21.31385909 105.64481864 -18.02734375 102.265625 C-11.92020089 99.265625 -11.92020089 99.265625 -8.02734375 99.265625 C-8.03178497 98.05484283 -8.0362262 96.84406067 -8.040802 95.59658813 C-8.08127965 84.20692602 -8.11129517 72.81727843 -8.13096809 61.42756081 C-8.14142199 55.57146847 -8.15561042 49.71543402 -8.17822266 43.859375 C-8.19989385 38.21192223 -8.21190026 32.56452528 -8.21709824 26.91703415 C-8.22080431 24.75837703 -8.22804094 22.5997231 -8.23880386 20.44108963 C-8.25324272 17.4263159 -8.25532489 14.41177519 -8.25439453 11.39697266 C-8.26158508 10.49714157 -8.26877563 9.59731049 -8.27618408 8.67021179 C-8.25172269 1.38407789 -7.41640832 0.05544978 0 0 Z " fill="#1C283C" transform="translate(172.02734375,58.734375)"/>
<path d="M0 0 C-0.00037703 0.6911449 -0.00075405 1.38228979 -0.0011425 2.09437847 C-0.00825976 18.91188939 0.01763807 35.72899243 0.0802784 52.54638195 C0.10977485 60.6791829 0.12809834 68.81172243 0.12011719 76.94458008 C0.11318908 84.0332576 0.12722651 91.12153056 0.16643608 98.21010858 C0.1864658 101.96357247 0.19599868 105.71640107 0.18042374 109.46990013 C0.16342822 113.66042771 0.19324101 117.84936927 0.22705078 122.03979492 C0.21482986 123.28416824 0.20260895 124.52854156 0.1900177 125.81062317 C0.0967756 131.63842478 0.0967756 131.63842478 2.27947617 136.84575844 C6.73179366 140.66993129 12.21849158 143.14977817 18 144 C18 143.34 18 142.68 18 142 C24.69434688 137.01949794 31.50475436 133.4584704 40 134 C40.66 134.33 41.32 134.66 42 135 C42.375 137.6875 42.375 137.6875 42 141 C37.73358958 145.4852007 32.44272075 148.14905104 27 151 C26.30390625 151.39703125 25.6078125 151.7940625 24.890625 152.203125 C20.41535532 154.66625792 17.20959272 155.79468363 12 155 C6.69727933 153.04597354 1.93361755 151.12093267 -2 147 C-3.16314927 146.27206026 -4.35184637 145.58335625 -5.5625 144.9375 C-9 143 -9 143 -11 141 C-11.24609566 138.77049828 -11.24609566 138.77049828 -11.24050903 135.93807983 C-11.24325836 134.86673294 -11.24600769 133.79538605 -11.24884033 132.6915741 C-11.24164978 131.51122086 -11.23445923 130.33086761 -11.22705078 129.11474609 C-11.22734283 127.87575058 -11.22763489 126.63675507 -11.22793579 125.36021423 C-11.22677904 121.95745406 -11.21673071 118.55493488 -11.20278788 115.15221739 C-11.19030738 111.59811833 -11.18911214 108.04401627 -11.18673706 104.48989868 C-11.18051438 97.7573588 -11.16409296 91.02488368 -11.14403808 84.29237235 C-11.12170353 76.62863567 -11.11069181 68.96489593 -11.10064721 61.30113482 C-11.07972738 45.53405235 -11.04453617 29.76703452 -11 14 C-12.11375 14.61875 -13.2275 15.2375 -14.375 15.875 C-15.00148438 16.22304687 -15.62796875 16.57109375 -16.2734375 16.9296875 C-18.1612614 18.00897274 -18.1612614 18.00897274 -20 20 C-20.30477358 21.99382425 -20.30477358 21.99382425 -20.25828552 24.31369019 C-20.26511353 25.21938751 -20.27194153 26.12508484 -20.27897644 27.05822754 C-20.27642349 28.05463257 -20.27387054 29.0510376 -20.27124023 30.07763672 C-20.27646698 31.12488922 -20.28169373 32.17214172 -20.28707886 33.25112915 C-20.29734011 35.53085704 -20.30310295 37.8106085 -20.30496025 40.09035873 C-20.30861012 43.6958597 -20.3252989 47.30108217 -20.34571838 50.90652466 C-20.40126396 61.15947296 -20.43183542 71.41246283 -20.45629883 81.66552734 C-20.47215288 87.93135486 -20.5023513 94.19698558 -20.54106331 100.46271133 C-20.55273453 102.85413655 -20.55864384 105.24559694 -20.55874443 107.63705063 C-20.55893597 110.9794347 -20.57716588 114.32127444 -20.59936523 117.66357422 C-20.59249947 119.15210907 -20.59249947 119.15210907 -20.585495 120.67071533 C-20.59996674 122.03772079 -20.59996674 122.03772079 -20.61473083 123.43234253 C-20.61674216 124.22248686 -20.61875349 125.01263119 -20.62082577 125.82671928 C-21.10128506 128.58052699 -22.10619824 129.96985531 -24 132 C-26.5 132.5625 -26.5 132.5625 -29 132 C-33.02405173 127.38448471 -32.46430279 122.06749691 -32.48339844 116.27807617 C-32.49829315 115.19779648 -32.51318787 114.11751678 -32.52853394 113.00450134 C-32.57231683 109.43393199 -32.59278923 105.86376233 -32.609375 102.29296875 C-32.62663521 99.80821219 -32.64390834 97.32345572 -32.66119385 94.83869934 C-32.69269975 89.62934511 -32.71024366 84.42012945 -32.72070312 79.21069336 C-32.73480086 72.5419125 -32.80925062 65.87522954 -32.89461899 59.20695019 C-32.95054622 54.07414937 -32.96611718 48.94178985 -32.97071075 43.8087101 C-32.97978037 41.35069031 -33.00383355 38.8926777 -33.0432663 36.4349575 C-33.0945679 32.99192692 -33.08878983 29.55336738 -33.06933594 26.11010742 C-33.09698029 25.09944214 -33.12462463 24.08877686 -33.15310669 23.04748535 C-33.07647644 18.70785309 -32.85922346 16.04503242 -30.04697418 12.62462807 C-27.78123771 10.58174368 -25.48904962 8.7611207 -23 7 C-22.09308222 6.32726185 -22.09308222 6.32726185 -21.16784286 5.64093304 C-19.61245007 4.53220091 -17.99454722 3.51271935 -16.375 2.5 C-15.33085938 1.8296875 -14.28671875 1.159375 -13.2109375 0.46875 C-8.55198058 -1.66235438 -4.82296735 -1.60765578 0 0 Z " fill="#091530" transform="translate(112,59)"/>
<path d="M0 0 C0 41.25 0 82.5 0 125 C-2.475 125.99 -2.475 125.99 -5 127 C-5 126.34 -5 125.68 -5 125 C-6.97536745 125.34786708 -6.97536745 125.34786708 -9 126 C-9.33 126.66 -9.66 127.32 -10 128 C-9.34 128 -8.68 128 -8 128 C-8 128.99 -8 129.98 -8 131 C-8.639375 131.268125 -9.27875 131.53625 -9.9375 131.8125 C-12.33131686 132.88667752 -12.33131686 132.88667752 -13 136 C-17.59050355 138.88960118 -22.54357888 140.79850065 -28 140 C-30.82691164 137.17308836 -30.25835906 135.30058952 -30.265625 131.34765625 C-30.26753845 130.69171982 -30.2694519 130.03578339 -30.27142334 129.35997009 C-30.27278468 127.9721539 -30.26909174 126.58432495 -30.26074219 125.1965332 C-30.25005834 123.07408939 -30.2606296 120.95249525 -30.2734375 118.83007812 C-30.27211556 117.48176897 -30.26955245 116.13346034 -30.265625 114.78515625 C-30.26336914 113.55676025 -30.26111328 112.32836426 -30.25878906 111.06274414 C-30 108 -30 108 -28 105 C-24.375 104.8125 -24.375 104.8125 -21 105 C-20.13580777 107.59257669 -19.82419068 109.34037707 -19.68359375 112.01171875 C-19.62075195 113.14770508 -19.62075195 113.14770508 -19.55664062 114.30664062 C-19.51732422 115.09232422 -19.47800781 115.87800781 -19.4375 116.6875 C-19.39431641 117.48478516 -19.35113281 118.28207031 -19.30664062 119.10351562 C-19.20072632 121.06881447 -19.09987449 123.03438496 -19 125 C-15.06903903 124.6531505 -12.27002609 123.34369663 -9.28411102 120.74502563 C-6.59833726 117.09522902 -7.19331432 112.58373446 -7.25878906 108.23046875 C-7.25137192 107.14537018 -7.24395477 106.06027161 -7.23631287 104.94229126 C-7.21841237 101.35684195 -7.24226657 97.7728975 -7.265625 94.1875 C-7.25945254 91.69554784 -7.25035864 89.20360134 -7.23846436 86.71166992 C-7.21623531 80.82088441 -7.21912426 74.93056002 -7.23558688 69.03976345 C-7.26581977 57.86783577 -7.23912282 46.69598591 -7.20830536 35.52407837 C-7.20318305 31.85408956 -7.21304461 28.18437203 -7.22515869 24.5144043 C-7.22497012 22.26611323 -7.2244779 20.01782216 -7.22363281 17.76953125 C-7.2308989 16.74808014 -7.23816498 15.72662903 -7.24565125 14.67422485 C-7.24315872 13.73219208 -7.2406662 12.7901593 -7.23809814 11.81958008 C-7.24149137 10.59734489 -7.24149137 10.59734489 -7.24495316 9.35041809 C-6.95722263 6.58953499 -6.21611884 4.48982983 -5 2 C-1.85714286 0 -1.85714286 0 0 0 Z " fill="#07152E" transform="translate(194,75)"/>
<path d="M0 0 C0.66 0 1.32 0 2 0 C1.99962297 0.6911449 1.99924595 1.38228979 1.9988575 2.09437847 C1.99174024 18.91188939 2.01763807 35.72899243 2.0802784 52.54638195 C2.10977485 60.6791829 2.12809834 68.81172243 2.12011719 76.94458008 C2.11318908 84.0332576 2.12722651 91.12153056 2.16643608 98.21010858 C2.1864658 101.96357247 2.19599868 105.71640107 2.18042374 109.46990013 C2.16342822 113.66042771 2.19324101 117.84936927 2.22705078 122.03979492 C2.21482986 123.28416824 2.20260895 124.52854156 2.1900177 125.81062317 C2.0967756 131.63842478 2.0967756 131.63842478 4.27947617 136.84575844 C8.73179366 140.66993129 14.21849158 143.14977817 20 144 C20 143.34 20 142.68 20 142 C26.69434688 137.01949794 33.50475436 133.4584704 42 134 C42.66 134.33 43.32 134.66 44 135 C44.375 137.6875 44.375 137.6875 44 141 C39.73358958 145.4852007 34.44272075 148.14905104 29 151 C28.30390625 151.39703125 27.6078125 151.7940625 26.890625 152.203125 C22.41535532 154.66625792 19.20959272 155.79468363 14 155 C8.69727933 153.04597354 3.93361755 151.12093267 0 147 C-1.16314927 146.27206026 -2.35184637 145.58335625 -3.5625 144.9375 C-7 143 -7 143 -9 141 C-9.24609566 138.80173302 -9.24609566 138.80173302 -9.24050903 136.01400757 C-9.24325836 134.95948898 -9.24600769 133.9049704 -9.24884033 132.8184967 C-9.24164978 131.65684494 -9.23445923 130.49519318 -9.22705078 129.29833984 C-9.22734283 128.07885147 -9.22763489 126.8593631 -9.22793579 125.60292053 C-9.22677908 122.25387612 -9.21673108 118.90507661 -9.20278788 115.55607557 C-9.19030698 112.05803107 -9.18911211 108.5599835 -9.18673706 105.06192017 C-9.1805145 98.43562769 -9.16409324 91.80940101 -9.14403808 85.18313754 C-9.12170316 77.64031769 -9.11069172 70.09749474 -9.10064721 62.55465007 C-9.07972765 47.03639524 -9.04453666 31.5182061 -9 16 C-8.67 16 -8.34 16 -8 16 C-8 38.77 -8 61.54 -8 85 C-7.01 85 -6.02 85 -5 85 C-4.08342019 90.38490641 -3.88861841 95.54230189 -4 101 C-3.34 101 -2.68 101 -2 101 C-1.67 108.92 -1.34 116.84 -1 125 C-0.67 83.75 -0.34 42.5 0 0 Z " fill="#242F45" transform="translate(110,59)"/>
<path d="M0 0 C2.4530831 2.4530831 2.23469745 3.78839442 2.24884033 7.13536072 C2.24164978 7.84817703 2.23445923 8.56099335 2.22705078 9.29541016 C2.22734283 10.04672714 2.22763489 10.79804413 2.22793579 11.5721283 C2.22653987 14.06122292 2.21096658 16.55002003 2.1953125 19.0390625 C2.1915833 20.76256141 2.18873589 22.48606243 2.18673706 24.20956421 C2.1790933 28.75030347 2.15943848 33.2909152 2.1373291 37.831604 C2.11688664 42.46323928 2.10773877 47.09489513 2.09765625 51.7265625 C2.07619325 60.81776443 2.04204839 69.90887162 2 79 C4.47266765 78.65555119 4.47266765 78.65555119 7 78 C7.33 77.34 7.66 76.68 8 76 C12.1264861 73.50491538 15.17289368 72.45146519 20 73 C22 75 22 75 22.125 78.625 C22.08375 79.73875 22.0425 80.8525 22 82 C19.43873936 83.294174 16.87606642 84.58540784 14.3125 85.875 C13.2306543 86.42220703 13.2306543 86.42220703 12.12695312 86.98046875 C9.12289957 88.4893541 6.18523647 89.92903755 3.04296875 91.1328125 C0.82237231 91.81476812 0.82237231 91.81476812 0 94 C-2.8125 94.3125 -2.8125 94.3125 -6 94 C-9.45793412 89.8841858 -9.42810218 85.72243529 -9.38818359 80.58544922 C-9.39344055 79.7507309 -9.39869751 78.91601257 -9.40411377 78.05599976 C-9.4172851 75.30537032 -9.40858753 72.5553225 -9.3984375 69.8046875 C-9.40045868 67.89087818 -9.40337048 65.97706962 -9.40713501 64.06326294 C-9.41155415 60.05691173 -9.40513904 56.05076143 -9.39111328 52.04443359 C-9.37399852 46.90491234 -9.38387967 41.76586028 -9.40183067 36.62635612 C-9.41265984 32.67673187 -9.40922656 28.72721929 -9.4014473 24.77759171 C-9.39944409 22.88213165 -9.40190879 20.9866615 -9.40888596 19.09121323 C-9.41648873 16.44578839 -9.40491405 13.80112937 -9.38818359 11.15576172 C-9.39425629 10.37023926 -9.40032898 9.5847168 -9.40658569 8.77539062 C-9.34482283 3.51488542 -9.34482283 3.51488542 -7.66714478 1.00979614 C-5.07562582 -0.55989707 -2.9507268 -0.31390711 0 0 Z " fill="#1D293E" transform="translate(131,71)"/>
<path d="M0 0 C0.66 0.33 1.32 0.66 2 1 C2 1.66 2 2.32 2 3 C2.66 3 3.32 3 4 3 C4 2.34 4 1.68 4 1 C4.99 1 5.98 1 7 1 C7 31.36 7 61.72 7 93 C6.01 93.33 5.02 93.66 4 94 C4 94.66 4 95.32 4 96 C1.03 96.99 1.03 96.99 -2 98 C-2 98.66 -2 99.32 -2 100 C-2.74765625 100.38671875 -3.4953125 100.7734375 -4.265625 101.171875 C-5.25046875 101.69265625 -6.2353125 102.2134375 -7.25 102.75 C-8.22453125 103.26046875 -9.1990625 103.7709375 -10.203125 104.296875 C-12.92499442 105.95432621 -14.79195338 107.73061875 -17 110 C-18.59134665 110.69621416 -20.18730119 111.3845078 -21.80859375 112.0078125 C-25.76589088 113.79952992 -29.37257474 116.24961051 -33.03515625 118.57421875 C-36.35452479 120.17048952 -38.36423024 120.52086914 -42 120 C-44.32749345 116.50875983 -44.50299316 115.10777749 -44 111 C-41.01650348 106.4598966 -36.03682413 105.28351503 -31 104 C-30.34 104 -29.68 104 -29 104 C-29 103.34 -29 102.68 -29 102 C-27.02460818 100.60879417 -25.07337856 99.35409972 -23 98.125 C-22.40493652 97.76639893 -21.80987305 97.40779785 -21.19677734 97.03833008 C-14.63629862 93.12217138 -8.03616252 90.01549822 -1 87 C-0.67 58.29 -0.34 29.58 0 0 Z " fill="#08162F" transform="translate(166,71)"/>
<path d="M0 0 C0.33 0.99 0.66 1.98 1 3 C1.99 3 2.98 3 4 3 C4 3.99 4 4.98 4 6 C4.66 6 5.32 6 6 6 C6 4.35 6 2.7 6 1 C6.33 1 6.66 1 7 1 C7 36.64 7 72.28 7 109 C5.02 109.495 5.02 109.495 3 110 C2.67 109.34 2.34 108.68 2 108 C1.34 108 0.68 108 0 108 C0 72.36 0 36.72 0 0 Z " fill="#08142E" transform="translate(82,79)"/>
<path d="M0 0 C0 0.33 0 0.66 0 1 C-1.98 1 -3.96 1 -6 1 C-6 2.65 -6 4.3 -6 6 C-8.97 6.99 -11.94 7.98 -15 9 C-14.67 10.32 -14.34 11.64 -14 13 C-11.03 13.495 -11.03 13.495 -8 14 C-8.556875 14.4125 -9.11375 14.825 -9.6875 15.25 C-10.450625 15.8275 -11.21375 16.405 -12 17 C-12.8600766 17.48355957 -13.7201532 17.96711914 -14.60629272 18.46533203 C-18.29265063 22.36877228 -17.6817296 26.11986776 -17.61181641 31.3046875 C-17.61748123 32.35223206 -17.62314606 33.39977661 -17.62898254 34.47906494 C-17.64249682 37.94473934 -17.62153073 41.40937108 -17.6015625 44.875 C-17.60706027 47.28109455 -17.61518269 49.68718442 -17.62582397 52.09326172 C-17.64874152 58.43101668 -17.64447614 64.76842717 -17.63201904 71.10620117 C-17.61373167 81.25108029 -17.62359745 91.39575765 -17.65787888 101.54058838 C-17.6639991 105.08824847 -17.65070192 108.6354791 -17.63589478 112.18310547 C-17.63884204 114.35384229 -17.64249629 116.5245783 -17.64697266 118.6953125 C-17.63303719 120.17913422 -17.63303719 120.17913422 -17.61882019 121.69293213 C-17.62678871 123.05560211 -17.62678871 123.05560211 -17.63491821 124.44580078 C-17.63303308 125.23334747 -17.63114796 126.02089417 -17.6292057 126.83230591 C-18.1004514 129.58724716 -19.1065543 130.97082982 -21 133 C-23.5 133.5625 -23.5 133.5625 -26 133 C-30.02405173 128.38448471 -29.46430279 123.06749691 -29.48339844 117.27807617 C-29.49829315 116.19779648 -29.51318787 115.11751678 -29.52853394 114.00450134 C-29.57231683 110.43393199 -29.59278923 106.86376233 -29.609375 103.29296875 C-29.62663521 100.80821219 -29.64390834 98.32345572 -29.66119385 95.83869934 C-29.69269975 90.62934511 -29.71024366 85.42012945 -29.72070312 80.21069336 C-29.73480086 73.5419125 -29.80925062 66.87522954 -29.89461899 60.20695019 C-29.95054622 55.07414937 -29.96611718 49.94178985 -29.97071075 44.8087101 C-29.97978037 42.35069031 -30.00383355 39.8926777 -30.0432663 37.4349575 C-30.0945679 33.99192692 -30.08878983 30.55336738 -30.06933594 27.11010742 C-30.09698029 26.09944214 -30.12462463 25.08877686 -30.15310669 24.04748535 C-30.07647644 19.70785309 -29.85922346 17.04503242 -27.04697418 13.62462807 C-24.78123771 11.58174368 -22.48904962 9.7611207 -20 8 C-19.09308222 7.32726185 -19.09308222 7.32726185 -18.16784286 6.64093304 C-16.61245007 5.53220091 -14.99454722 4.51271935 -13.375 3.5 C-12.33085938 2.8296875 -11.28671875 2.159375 -10.2109375 1.46875 C-6.55255873 -0.204669 -3.97764366 -0.2805391 0 0 Z M-27 21 C-27 56.64 -27 92.28 -27 129 C-26.01 129 -25.02 129 -24 129 C-24 129.66 -24 130.32 -24 131 C-22.02 130.505 -22.02 130.505 -20 130 C-20 94.36 -20 58.72 -20 22 C-20.33 22 -20.66 22 -21 22 C-21 23.65 -21 25.3 -21 27 C-21.66 27 -22.32 27 -23 27 C-23 26.01 -23 25.02 -23 24 C-23.99 24 -24.98 24 -26 24 C-26.33 23.01 -26.66 22.02 -27 21 Z M-11 8 C-10.34 8.66 -9.68 9.32 -9 10 C-10.98 10.99 -10.98 10.99 -13 12 C-12.34 10.68 -11.68 9.36 -11 8 Z " fill="#323B4D" transform="translate(109,58)"/>
<path d="M0 0 C0.33 0 0.66 0 1 0 C1.01030746 0.92657913 1.02061493 1.85315826 1.03123474 2.80781555 C1.16324813 14.64274993 1.29902778 26.47763946 1.4375 38.3125 C1.44852123 39.25465488 1.45954247 40.19680977 1.47089767 41.1675148 C1.83418371 72.11531923 2.30171559 103.05769288 3 134 C4.65 134.33 6.3 134.66 8 135 C7.98839844 134.16855469 7.97679688 133.33710938 7.96484375 132.48046875 C7.95130859 130.85044922 7.95130859 130.85044922 7.9375 129.1875 C7.92589844 128.10855469 7.91429688 127.02960938 7.90234375 125.91796875 C8 123 8 123 9 120 C9.66 120.33 10.32 120.66 11 121 C10.979375 121.928125 10.95875 122.85625 10.9375 123.8125 C10.84230396 127.02286011 10.84230396 127.02286011 12 130 C18.46007288 128.98665524 23.23337783 126.24469893 28.60620117 122.65625 C30.03680222 121.716891 31.51548251 120.85159998 33 120 C33.99 120.495 33.99 120.495 35 121 C34.67 121.66 34.34 122.32 34 123 C33.34 123 32.68 123 32 123 C32.40311361 125.51686936 32.40311361 125.51686936 34 128 C35.87333056 128.65618638 35.87333056 128.65618638 38 129 C40.15625 129.421875 40.15625 129.421875 42 130 C44.34264224 133.51396335 44.19253077 136.86058839 44 141 C42.35 141.33 40.7 141.66 39 142 C39.66 141.01 40.32 140.02 41 139 C41.39013716 137.0103005 41.73202649 135.00980131 42 133 C33.04234773 132.52012577 27.26936439 134.98067697 20 140 C19.34 140 18.68 140 18 140 C18 140.66 18 141.32 18 142 C14.09669718 142.24782875 11.81588444 141.7006498 8.4375 139.75 C7.69371094 139.33234375 6.94992188 138.9146875 6.18359375 138.484375 C0.28210618 134.47263032 0.28210618 134.47263032 -0.49219131 130.43069839 C-0.48850414 129.45359783 -0.48481697 128.47649727 -0.48101807 127.4697876 C-0.48651672 126.34520645 -0.49201538 125.22062531 -0.49768066 124.06196594 C-0.48329956 122.83269882 -0.46891846 121.6034317 -0.45410156 120.33691406 C-0.45468567 119.03910507 -0.45526978 117.74129608 -0.45587158 116.40415955 C-0.45701917 112.84850292 -0.43350336 109.29338613 -0.40557575 105.73785496 C-0.38056919 102.02096354 -0.3782207 98.30405972 -0.37347412 94.58709717 C-0.3610421 87.54995833 -0.32821761 80.51306807 -0.28807616 73.47603869 C-0.24336536 65.46404162 -0.22137318 57.45203266 -0.20129442 49.43994188 C-0.15948502 32.95981574 -0.08912878 16.47993959 0 0 Z " fill="#E9EBEE" transform="translate(112,61)"/>
<path d="M0 0 C0.375 2.6875 0.375 2.6875 0 6 C-4.26641042 10.4852007 -9.55727925 13.14905104 -15 16 C-16.04414063 16.59554687 -16.04414063 16.59554687 -17.109375 17.203125 C-21.58464468 19.66625792 -24.79040728 20.79468363 -30 20 C-35.30153796 18.04640936 -40.06815029 16.12228118 -44 12 C-45.97620986 10.95377125 -47.9737129 9.94560065 -50 9 C-48.68 8.67 -47.36 8.34 -46 8 C-46 8.66 -46 9.32 -46 10 C-42.7 10.33 -39.4 10.66 -36 11 C-36 10.01 -36 9.02 -36 8 C-36.66 8 -37.32 8 -38 8 C-37.67 7.01 -37.34 6.02 -37 5 C-32.62297367 6.22556737 -28.30322683 7.53060547 -24 9 C-24 8.34 -24 7.68 -24 7 C-21.515625 5.30859375 -21.515625 5.30859375 -18.25 3.4375 C-17.18265625 2.81746094 -16.1153125 2.19742188 -15.015625 1.55859375 C-10.37331556 -0.84073458 -4.96170145 -2.48085072 0 0 Z " fill="#0A182E" transform="translate(154,194)"/>
<path d="M0 0 C3.625 -0.1875 3.625 -0.1875 7 0 C8.50337654 4.51012963 8.32046251 9.20375335 8.4296875 13.92773438 C8.51381195 15.95898943 8.7475832 17.98273458 9 20 C9.99 20.66 10.98 21.32 12 22 C12 22.66 12 23.32 12 24 C12.66 24 13.32 24 14 24 C14 23.34 14 22.68 14 22 C14.99 22 15.98 22 17 22 C17.33 23.65 17.66 25.3 18 27 C17.34 27.33 16.68 27.66 16 28 C15.67 28.99 15.34 29.98 15 31 C10.40949645 33.88960118 5.45642112 35.79850065 0 35 C-2.82691164 32.17308836 -2.25835906 30.30058952 -2.265625 26.34765625 C-2.26753845 25.69171982 -2.2694519 25.03578339 -2.27142334 24.35997009 C-2.27278468 22.9721539 -2.26909174 21.58432495 -2.26074219 20.1965332 C-2.25005834 18.07408939 -2.2606296 15.95249525 -2.2734375 13.83007812 C-2.27211556 12.48176897 -2.26955245 11.13346034 -2.265625 9.78515625 C-2.26336914 8.55676025 -2.26111328 7.32836426 -2.25878906 6.06274414 C-2 3 -2 3 0 0 Z " fill="#091530" transform="translate(166,180)"/>
<path d="M0 0 C0 41.91 0 83.82 0 127 C-0.66 127 -1.32 127 -2 127 C-2 86.41 -2 45.82 -2 4 C-3.98 4.99 -5.96 5.98 -8 7 C-8.33 43.3 -8.66 79.6 -9 117 C-10.98 117.495 -10.98 117.495 -13 118 C-12.67477199 117.43365278 -12.34954397 116.86730556 -12.01446056 116.28379631 C-10.90362574 113.78303821 -10.75629077 112.17942496 -10.76863098 109.45925903 C-10.76705994 108.10092453 -10.76705994 108.10092453 -10.76545715 106.71514893 C-10.77429428 105.72907654 -10.78313141 104.74300415 -10.79223633 103.72705078 C-10.79343475 102.68271881 -10.79463318 101.63838684 -10.79586792 100.56240845 C-10.79901832 98.29470046 -10.80633173 96.02699532 -10.8173008 93.75931168 C-10.83213629 90.16989846 -10.8305608 86.58085809 -10.82365417 82.99142456 C-10.80480564 72.78599324 -10.79843708 62.5808515 -10.84545898 52.37548828 C-10.87303453 46.13310473 -10.86674223 39.89153576 -10.83844566 33.64916611 C-10.8341824 31.27052542 -10.84268111 28.89182635 -10.8641758 26.51327896 C-10.89301359 23.18517861 -10.87875805 19.85981779 -10.85473633 16.53173828 C-10.87369461 15.54971436 -10.89265289 14.56769043 -10.91218567 13.5559082 C-10.8041357 7.05573988 -10.8041357 7.05573988 -8.49002647 4.01757431 C-5.56355918 1.37515195 -4.02938557 0 0 0 Z " fill="#ACB3BC" transform="translate(101,73)"/>
<path d="M0 0 C0.23205221 18.13755802 0.00414259 35.94482258 -2 54 C-3.65 54 -5.3 54 -7 54 C-7 36.18 -7 18.36 -7 0 C-4.3333581 -1.33332095 -2.83319697 -0.67102033 0 0 Z " fill="#081631" transform="translate(131,73)"/>
<path d="M0 0 C0.33 0 0.66 0 1 0 C1.00808685 1.0685321 1.01617371 2.13706421 1.02450562 3.23797607 C1.10195465 13.30267953 1.18969087 23.3672476 1.28752708 33.43177414 C1.33749556 38.60618147 1.38382563 43.78056833 1.421875 48.95507812 C1.45872072 53.94777061 1.50507888 58.94029205 1.55806351 63.93283844 C1.57661122 65.83860528 1.59171779 67.74440878 1.60334396 69.65023041 C1.62019987 72.31745457 1.64923339 74.98428671 1.68115234 77.65136719 C1.68331253 78.4411496 1.68547272 79.23093201 1.68769836 80.04464722 C1.70483367 85.36647714 1.70483367 85.36647714 4 90 C7.05908413 90.81584568 7.05908413 90.81584568 10 91 C10.33 90.01 10.66 89.02 11 88 C13.11328125 87.0390625 13.11328125 87.0390625 16 86 C19.04507264 84.48942525 22.07237458 82.95143407 25.09179688 81.390625 C29.78766741 79 29.78766741 79 32 79 C31.51515724 74.35413108 31.51515724 74.35413108 30 70 C31.485 70.495 31.485 70.495 33 71 C33 73.97 33 76.94 33 80 C30.03 80.99 30.03 80.99 27 82 C27 83.65 27 85.3 27 87 C25.35 87 23.7 87 22 87 C22 87.33 22 87.66 22 88 C23.32 88 24.64 88 26 88 C26.33 88.99 26.66 89.98 27 91 C27.33 89.35 27.66 87.7 28 86 C28.33 86.99 28.66 87.98 29 89 C30.485 89.495 30.485 89.495 32 90 C30.27430361 91.13031603 28.54428261 92.25403107 26.8125 93.375 C25.84957031 94.00148438 24.88664062 94.62796875 23.89453125 95.2734375 C21.30196064 96.81988312 18.83146884 97.97508075 16 99 C16 99.66 16 100.32 16 101 C13.03 101.99 10.06 102.98 7 104 C7 103.34 7 102.68 7 102 C8.7015625 101.5978125 8.7015625 101.5978125 10.4375 101.1875 C12.2009375 100.5996875 12.2009375 100.5996875 14 100 C14.33 99.01 14.66 98.02 15 97 C15.99 97 16.98 97 18 97 C17.67 96.01 17.34 95.02 17 94 C15.515 93.505 15.515 93.505 14 93 C13.01 93.495 13.01 93.495 12 94 C9.94140625 94.23828125 9.94140625 94.23828125 7.5625 94.3125 C6.78003906 94.34988281 5.99757813 94.38726562 5.19140625 94.42578125 C3 94 3 94 1.38432312 92.51812744 C-0.62424184 88.86448439 -0.39353314 85.34554916 -0.34057617 81.28417969 C-0.34101425 80.40577423 -0.34145233 79.52736877 -0.34190369 78.62234497 C-0.33981542 75.72196139 -0.31648248 72.82215747 -0.29296875 69.921875 C-0.28737293 67.90977291 -0.28310277 65.89766672 -0.28010559 63.88555908 C-0.26865571 58.59184467 -0.23918716 53.29837752 -0.20599365 48.00476074 C-0.17529594 42.60216619 -0.16160088 37.19953165 -0.14648438 31.796875 C-0.11431772 21.19780808 -0.06311951 10.59892461 0 0 Z " fill="#E2E5E8" transform="translate(121,74)"/>
<path d="M0 0 C3.37462715 0.54723683 5.08235 1.0549 8 3 C8.39148998 5.24676991 8.39148998 5.24676991 8.41459656 8.10420227 C8.43028183 9.18515167 8.4459671 10.26610107 8.46212769 11.37980652 C8.46391022 12.57100601 8.46569275 13.76220551 8.4675293 14.98950195 C8.48081772 16.23997314 8.49410614 17.49044434 8.50779724 18.77880859 C8.53993284 22.21501613 8.5581164 25.65067676 8.56763434 29.08698297 C8.5742042 31.23352652 8.58454703 33.38001884 8.59613991 35.52654076 C8.63590164 43.0147014 8.65790371 50.50270795 8.66577148 57.9909668 C8.67364016 64.97143399 8.72285717 71.95080172 8.79083699 78.93091804 C8.84715181 84.92252868 8.87268442 90.91377375 8.87471896 96.90564698 C8.87656045 100.48497792 8.89122358 104.06315069 8.93753624 107.64220619 C8.98812031 111.63636992 8.97485533 115.62787599 8.95581055 119.62231445 C8.97985962 120.80744125 9.00390869 121.99256805 9.02868652 123.21360779 C8.91891989 131.01262651 8.91891989 131.01262651 6.22532082 133.90688133 C4.15798891 135.27475158 2.37841613 136.30211661 0 137 C-0.66 136.67 -1.32 136.34 -2 136 C-1.030625 135.401875 -0.06125 134.80375 0.9375 134.1875 C4.23052042 132.28872491 4.23052042 132.28872491 5 129 C5.10154275 127.30013097 5.14626252 125.59661027 5.15821838 123.89375305 C5.1680072 122.8378598 5.17779602 121.78196655 5.18788147 120.69407654 C5.19363693 119.53602005 5.1993924 118.37796356 5.20532227 117.18481445 C5.21522186 115.96518005 5.22512146 114.74554565 5.23532104 113.48895264 C5.26151521 110.14420085 5.28337461 106.79947301 5.30332303 103.45468163 C5.3251893 99.95927883 5.35257485 96.46391943 5.37937927 92.96855164 C5.42929749 86.349431 5.47423955 79.73028626 5.51740164 73.1111185 C5.56678145 65.5754926 5.62169682 58.03991025 5.67708123 50.50432646 C5.7908879 35.00292454 5.89772981 19.50148258 6 4 C5.195625 3.71125 4.39125 3.4225 3.5625 3.125 C1 2 1 2 0 0 Z " fill="#BABFC7" transform="translate(190,69)"/>
<path d="M0 0 C0.66 0 1.32 0 2 0 C2.04671034 16.22888355 2.08198409 32.45774532 2.10362434 48.68667984 C2.11393913 56.22196957 2.12800332 63.75721754 2.15087891 71.29248047 C2.1708066 77.85982947 2.18371497 84.42714823 2.18817699 90.99452662 C2.19078543 94.4722523 2.19692056 97.94989146 2.21146011 101.42758942 C2.22755538 105.30883919 2.22798008 109.19000414 2.22705078 113.07128906 C2.23424133 114.22575027 2.24143188 115.38021149 2.24884033 116.56965637 C2.246091 117.62692429 2.24334167 118.6841922 2.24050903 119.77349854 C2.24235262 120.69160435 2.24419621 121.60971016 2.24609566 122.55563736 C1.97888575 125.20971884 1.44332025 126.76698615 0 129 C-5.33333333 133 -5.33333333 133 -8 133 C-8 132.01 -8 131.02 -8 130 C-8.66 130 -9.32 130 -10 130 C-9.34 128.68 -8.68 127.36 -8 126 C-6.68 126 -5.36 126 -4 126 C-3.67 126.66 -3.34 127.32 -3 128 C-2.01 127.505 -2.01 127.505 -1 127 C-0.67 85.09 -0.34 43.18 0 0 Z " fill="#394354" transform="translate(194,73)"/>
<path d="M0 0 C4.875 1.875 4.875 1.875 6 3 C6.10220708 4.48586212 6.13518787 5.97654793 6.14044189 7.46591187 C6.14900711 8.91291222 6.14900711 8.91291222 6.15774536 10.3891449 C6.15886322 11.45617142 6.15998108 12.52319794 6.16113281 13.62255859 C6.16609772 14.73954636 6.17106262 15.85653412 6.17617798 17.00737 C6.19084348 20.72106531 6.19760877 24.43471792 6.203125 28.1484375 C6.20887268 30.71814984 6.21463045 33.28786216 6.22039795 35.85757446 C6.22957349 40.56242264 6.23586882 45.26725361 6.2388947 49.9721092 C6.24337608 56.90265711 6.26092489 63.83300786 6.2898953 70.7634958 C6.31409441 76.76013582 6.32183796 82.75668238 6.32357025 88.75337601 C6.32660571 91.30754291 6.33466405 93.86170881 6.34775543 96.41584396 C6.3647371 99.98360026 6.36295484 103.55087246 6.35644531 107.11865234 C6.3656601 108.1816304 6.37487488 109.24460846 6.3843689 110.33979797 C6.37879974 111.31010452 6.37323059 112.28041107 6.36749268 113.28012085 C6.36895924 114.1241062 6.3704258 114.96809155 6.3719368 115.83765221 C5.9095535 118.52583337 5.14693414 119.36157263 3 121 C-0.1875 122.1875 -0.1875 122.1875 -3 123 C-4 122 -4 122 -4.09765625 118.40234375 C-4.0909822 116.91403133 -4.07902183 115.42573568 -4.0625 113.9375 C-4.05798828 113.17888672 -4.05347656 112.42027344 -4.04882812 111.63867188 C-4.0370068 109.75908129 -4.01907078 107.87953101 -4 106 C-2 108 -2 108 -1.8046875 110.6015625 C-1.83949219 112.09816406 -1.83949219 112.09816406 -1.875 113.625 C-1.89304688 114.62789063 -1.91109375 115.63078125 -1.9296875 116.6640625 C-1.96449219 117.82035156 -1.96449219 117.82035156 -2 119 C0.475 118.505 0.475 118.505 3 118 C3.33 80.05 3.66 42.1 4 3 C3.01 3 2.02 3 1 3 C0.67 2.01 0.34 1.02 0 0 Z " fill="#B0B8C2" transform="translate(179,76)"/>
<path d="M0 0 C-1.75 4.875 -1.75 4.875 -4 6 C-4.99 5.67 -5.98 5.34 -7 5 C-7.66 6.32 -8.32 7.64 -9 9 C-9.66 9 -10.32 9 -11 9 C-10.34 10.32 -9.68 11.64 -9 13 C-8.67 12.01 -8.34 11.02 -8 10 C-7.01 10.33 -6.02 10.66 -5 11 C-5 11.66 -5 12.32 -5 13 C-1.535 12.505 -1.535 12.505 2 12 C-0.19938533 14.71688776 -2.57402266 15.71331211 -5.7734375 16.97265625 C-9.73280747 18.79952345 -13.35805186 21.24039297 -17.03515625 23.57421875 C-20.35452479 25.17048952 -22.36423024 25.52086914 -26 25 C-28.32749345 21.50875983 -28.50299316 20.10777749 -28 16 C-25.01650348 11.4598966 -20.03682413 10.28351503 -15 9 C-14.34 9 -13.68 9 -13 9 C-13 8.34 -13 7.68 -13 7 C-10.6640625 5.2734375 -10.6640625 5.2734375 -7.625 3.375 C-6.62726563 2.74335938 -5.62953125 2.11171875 -4.6015625 1.4609375 C-2 0 -2 0 0 0 Z " fill="#0A142D" transform="translate(150,166)"/>
<path d="M0 0 C-0.90492187 0.38478516 -0.90492187 0.38478516 -1.828125 0.77734375 C-2.62734375 1.16019531 -3.4265625 1.54304688 -4.25 1.9375 C-5.03890625 2.29714844 -5.8278125 2.65679687 -6.640625 3.02734375 C-10.78607951 6.49332807 -12.64556111 11.36381704 -13.35974884 16.67567635 C-13.48943662 19.68119989 -13.49520959 22.66211203 -13.45410156 25.67016602 C-13.45468567 26.80289444 -13.45526978 27.93562286 -13.45587158 29.10267639 C-13.45310079 32.82007252 -13.42205481 36.53665142 -13.390625 40.25390625 C-13.38315908 42.84178733 -13.37746781 45.42967409 -13.37347412 48.01756287 C-13.35979934 54.11604568 -13.3283239 60.21419483 -13.28807616 66.31255239 C-13.24322504 73.26059264 -13.22133806 80.20864739 -13.20129442 87.15679657 C-13.1595867 101.43801949 -13.08931843 115.71899942 -13 130 C-12.34 130 -11.68 130 -11 130 C-11.33 130.99 -11.66 131.98 -12 133 C-15.41123352 128.84719398 -16.1192074 125.63144188 -16.14717102 120.32759094 C-16.15432632 119.39271347 -16.16148163 118.457836 -16.16885376 117.49462891 C-16.17154266 116.4758667 -16.17423157 115.45710449 -16.17700195 114.4074707 C-16.18685875 112.78967964 -16.18685875 112.78967964 -16.19691467 111.13920593 C-16.21663336 107.56806365 -16.22830742 103.99696341 -16.23828125 100.42578125 C-16.24235678 99.20503592 -16.2464323 97.98429058 -16.25063133 96.72655296 C-16.2714864 90.26472518 -16.28579035 83.8029186 -16.29516602 77.34106445 C-16.30521891 70.67417876 -16.34062441 64.00767357 -16.38033772 57.34089375 C-16.40651 52.20809823 -16.41485845 47.07538224 -16.41844749 41.94252586 C-16.42331215 39.48541191 -16.43492259 37.02830147 -16.45348549 34.57125282 C-16.47788788 31.12706817 -16.47690931 27.68374697 -16.4699707 24.23950195 C-16.48918579 22.72654037 -16.48918579 22.72654037 -16.50878906 21.18301392 C-16.45612903 13.98623195 -15.25371589 7.26642572 -10 1.9921875 C-9.01 1.43917969 -9.01 1.43917969 -8 0.875 C-7.34 0.48054688 -6.68 0.08609375 -6 -0.3203125 C-3.59907518 -1.13625179 -2.35748118 -0.83143309 0 0 Z " fill="#D0D6DE" transform="translate(47,67)"/>
<path d="M0 0 C1.97265625 0.265625 1.97265625 0.265625 4.97265625 2.265625 C6.39578125 2.6678125 6.39578125 2.6678125 7.84765625 3.078125 C11.51924292 4.47332794 13.37810153 6.36582855 15.97265625 9.265625 C12.56952887 8.20687426 9.95912394 7.25660346 6.97265625 5.265625 C1.67512792 2.91116796 0.97892164 3.26353654 -5.02734375 5.265625 C-5.35734375 36.285625 -5.68734375 67.305625 -6.02734375 99.265625 C-15.02734375 103.765625 -15.02734375 103.765625 -19.02734375 104.265625 C-17.38623927 100.98341605 -14.33411387 100.51991711 -11.02734375 99.265625 C-10.03734375 99.265625 -9.04734375 99.265625 -8.02734375 99.265625 C-8.03178497 98.05484283 -8.0362262 96.84406067 -8.040802 95.59658813 C-8.08127965 84.20692602 -8.11129517 72.81727843 -8.13096809 61.42756081 C-8.14142199 55.57146847 -8.15561042 49.71543402 -8.17822266 43.859375 C-8.19989385 38.21192223 -8.21190026 32.56452528 -8.21709824 26.91703415 C-8.22080431 24.75837703 -8.22804094 22.5997231 -8.23880386 20.44108963 C-8.25324272 17.4263159 -8.25532489 14.41177519 -8.25439453 11.39697266 C-8.26158508 10.49714157 -8.26877563 9.59731049 -8.27618408 8.67021179 C-8.25172269 1.38407789 -7.41640832 0.05544978 0 0 Z " fill="#3E4556" transform="translate(172.02734375,58.734375)"/>
<path d="M0 0 C0.66 0.33 1.32 0.66 2 1 C1.18703461 1.60255112 0.37406921 2.20510223 -0.46353149 2.82591248 C-3.70602733 6.10428155 -3.59401049 9.23943228 -3.63320923 13.68533325 C-3.61680389 14.70835541 -3.60039856 15.73137756 -3.58349609 16.78540039 C-3.58583252 17.87210526 -3.58816895 18.95881012 -3.59057617 20.07844543 C-3.5921904 23.66867185 -3.55815865 27.25761212 -3.5234375 30.84765625 C-3.51664822 33.34199052 -3.51192594 35.83633121 -3.50918579 38.33067322 C-3.49713906 44.22625657 -3.4621263 50.12136606 -3.41663706 56.01677841 C-3.37157547 62.05169404 -3.35449456 68.08651919 -3.34119225 74.12157536 C-3.32640901 80.50946981 -3.30118148 86.89730645 -3.2734375 93.28515625 C-3.26852673 94.50708239 -3.26361595 95.72900852 -3.25855637 96.98796272 C-3.24229494 100.44003727 -3.21888956 103.89198095 -3.19287109 107.34399414 C-3.18861115 108.36904053 -3.1843512 109.39408691 -3.17996216 110.45019531 C-3.17136169 111.39085342 -3.16276123 112.33151154 -3.15390015 113.30067444 C-3.14832785 114.11641969 -3.14275555 114.93216494 -3.13701439 115.77262974 C-3.00207 117.96634916 -2.60583402 119.89198742 -2 122 C-3.32 121.67 -4.64 121.34 -6 121 C-6.02333923 106.04040767 -6.04098422 91.08081675 -6.05181217 76.1212101 C-6.05697295 69.17552711 -6.0640115 62.22985542 -6.07543945 55.28417969 C-6.08645439 48.58634663 -6.09227771 41.88852775 -6.09487724 35.19068527 C-6.09673075 32.63011871 -6.10034994 30.06955282 -6.10573006 27.50899124 C-6.11294589 23.93387693 -6.11399071 20.35881177 -6.11352539 16.78369141 C-6.11712067 15.71554703 -6.12071594 14.64740265 -6.12442017 13.54689026 C-6.1230455 12.57651321 -6.12167084 11.60613617 -6.12025452 10.60635376 C-6.12117631 9.7601478 -6.1220981 8.91394184 -6.12304783 8.04209328 C-6 6 -6 6 -5 4 C-4.34 4 -3.68 4 -3 4 C-3 3.34 -3 2.68 -3 2 C-2.01 1.34 -1.02 0.68 0 0 Z " fill="#B2B7BF" transform="translate(84,68)"/>
<path d="M0 0 C0.375 2.6875 0.375 2.6875 0 6 C-4.26641042 10.4852007 -9.55727925 13.14905104 -15 16 C-15.69609375 16.39703125 -16.3921875 16.7940625 -17.109375 17.203125 C-21.55892519 19.65210223 -24.8006451 20.59992557 -30 20 C-32.4375 19 -32.4375 19 -34 18 C-31.45297384 16.72648692 -30.5717055 17.19808075 -27.875 17.9375 C-26.78832031 18.22947266 -26.78832031 18.22947266 -25.6796875 18.52734375 C-25.12539062 18.68332031 -24.57109375 18.83929688 -24 19 C-24 18.34 -24 17.68 -24 17 C-22.88625 16.731875 -21.7725 16.46375 -20.625 16.1875 C-16.78159049 15.34190981 -16.78159049 15.34190981 -15 12 C-15.99 12.33 -16.98 12.66 -18 13 C-18.66 11.68 -19.32 10.36 -20 9 C-19.01 8.34 -18.02 7.68 -17 7 C-18.65 7 -20.3 7 -22 7 C-17.08029142 1.21210755 -7.37429526 -3.68714763 0 0 Z " fill="#172238" transform="translate(154,194)"/>
<path d="M0 0 C0.33 0.33 0.66 0.66 1 1 C1.99 1.33 2.98 1.66 4 2 C4 3.32 4 4.64 4 6 C4.66 6.33 5.32 6.66 6 7 C5.34 7 4.68 7 4 7 C4 7.66 4 8.32 4 9 C2.27281484 9.96189997 0.54315942 10.91936508 -1.1875 11.875 C-2.63189453 12.67550781 -2.63189453 12.67550781 -4.10546875 13.4921875 C-10.83937824 17 -10.83937824 17 -15 17 C-15.66 16.34 -16.32 15.68 -17 15 C-17.66 15.99 -18.32 16.98 -19 18 C-19.66 16.35 -20.32 14.7 -21 13 C-19.25 11 -19.25 11 -17 9 C-15.68 9 -14.36 9 -13 9 C-12.67 8.0925 -12.34 7.185 -12 6.25 C-9.67536006 2.4724601 -4.68324678 -2.34162339 0 0 Z " fill="#131F36" transform="translate(160,162)"/>
<path d="M0 0 C0 0.33 0 0.66 0 1 C-2.31 1.66 -4.62 2.32 -7 3 C-7.33 35.01 -7.66 67.02 -8 100 C-10.97 100.99 -10.97 100.99 -14 102 C-13.34 99.69 -12.68 97.38 -12 95 C-11.34 95 -10.68 95 -10 95 C-10.00666183 93.85407883 -10.01332367 92.70815765 -10.02018738 91.5275116 C-10.08093611 80.74154194 -10.12594262 69.95560688 -10.15543652 59.16950512 C-10.17110923 53.62391735 -10.19237688 48.07846742 -10.22631836 42.53295898 C-10.25885442 37.18375095 -10.27684091 31.83467569 -10.28463173 26.48537636 C-10.29018558 24.44196799 -10.30103057 22.39856709 -10.31719017 20.35521507 C-10.33888791 17.49861172 -10.34197013 14.64256084 -10.34057617 11.78588867 C-10.351362 10.93640656 -10.36214783 10.08692444 -10.3732605 9.21170044 C-10.34277416 3.4587166 -10.34277416 3.4587166 -8.70792103 1.27087879 C-5.97879918 -0.75988435 -3.28046416 -0.18568665 0 0 Z " fill="#BABEC6" transform="translate(172,58)"/>
<path d="M0 0 C0.33 0 0.66 0 1 0 C1.01030746 0.92657913 1.02061493 1.85315826 1.03123474 2.80781555 C1.16324813 14.64274993 1.29902778 26.47763946 1.4375 38.3125 C1.44852123 39.25465488 1.45954247 40.19680977 1.47089767 41.1675148 C1.83418371 72.11531923 2.30171559 103.05769288 3 134 C3.89912109 134.185625 3.89912109 134.185625 4.81640625 134.375 C7 135 7 135 9.9375 137 C12.82345826 138.88470743 14.63184085 139.60374598 18 140 C18 140.66 18 141.32 18 142 C14.09669718 142.24782875 11.81588444 141.7006498 8.4375 139.75 C7.69371094 139.33234375 6.94992188 138.9146875 6.18359375 138.484375 C0.28210618 134.47263032 0.28210618 134.47263032 -0.49219131 130.43069839 C-0.48850414 129.45359783 -0.48481697 128.47649727 -0.48101807 127.4697876 C-0.48651672 126.34520645 -0.49201538 125.22062531 -0.49768066 124.06196594 C-0.48329956 122.83269882 -0.46891846 121.6034317 -0.45410156 120.33691406 C-0.45468567 119.03910507 -0.45526978 117.74129608 -0.45587158 116.40415955 C-0.45701917 112.84850292 -0.43350336 109.29338613 -0.40557575 105.73785496 C-0.38056919 102.02096354 -0.3782207 98.30405972 -0.37347412 94.58709717 C-0.3610421 87.54995833 -0.32821761 80.51306807 -0.28807616 73.47603869 C-0.24336536 65.46404162 -0.22137318 57.45203266 -0.20129442 49.43994188 C-0.15948502 32.95981574 -0.08912878 16.47993959 0 0 Z " fill="#B6BBC6" transform="translate(112,61)"/>
<path d="M0 0 C0 0.33 0 0.66 0 1 C-1.98 1 -3.96 1 -6 1 C-6 2.65 -6 4.3 -6 6 C-8.97 6.99 -11.94 7.98 -15 9 C-14.67 10.32 -14.34 11.64 -14 13 C-11.03 13.495 -11.03 13.495 -8 14 C-16.75 21 -16.75 21 -21 21 C-21 22.98 -21 24.96 -21 27 C-21.66 27 -22.32 27 -23 27 C-23 26.01 -23 25.02 -23 24 C-23.99 24 -24.98 24 -26 24 C-27.24242813 20.2727156 -27.53133458 17.91859249 -27 14 C-24.67465532 11.45834419 -22.80969339 9.90215784 -20 8 C-18.97261719 7.28972656 -17.94523437 6.57945313 -16.88671875 5.84765625 C-11.10710731 2.02553371 -7.18197619 -0.5259528 0 0 Z M-11 8 C-10.34 8.66 -9.68 9.32 -9 10 C-10.98 10.99 -10.98 10.99 -13 12 C-12.34 10.68 -11.68 9.36 -11 8 Z " fill="#08122E" transform="translate(109,58)"/>
<path d="M0 0 C0.99 0.33 1.98 0.66 3 1 C3.1636322 16.15106645 3.28701484 31.30209211 3.3626852 46.45384407 C3.39875694 53.4893869 3.44792061 60.52438023 3.52807617 67.55957031 C3.60538611 74.34824709 3.64598392 81.13635249 3.6641407 87.92544174 C3.67708074 90.51628483 3.70234988 93.10709646 3.7401104 95.69769669 C3.79088694 99.3253571 3.79792494 102.95065502 3.79467773 106.57861328 C3.81984467 107.65107803 3.8450116 108.72354279 3.87094116 109.82850647 C3.80296178 116.8414818 3.80296178 116.8414818 1.56398201 120.0718956 C-0.27790114 121.81488335 -1.64845287 123.0396944 -4 124 C-5.65 123.67 -7.3 123.34 -9 123 C-9.33 116.73 -9.66 110.46 -10 104 C-9.34 104.33 -8.68 104.66 -8 105 C-7.68758545 107.71446979 -7.48663408 110.33909361 -7.375 113.0625 C-7.33632812 113.82111328 -7.29765625 114.57972656 -7.2578125 115.36132812 C-7.16326438 117.24047195 -7.08053244 119.12020336 -7 121 C-2.58477891 119.73025028 -2.58477891 119.73025028 1 117 C1.30079617 114.88251825 1.30079617 114.88251825 1.24723816 112.40710449 C1.25143265 111.43961777 1.25562714 110.47213104 1.25994873 109.47532654 C1.25432922 108.41032425 1.24870972 107.34532196 1.24291992 106.24804688 C1.24481827 105.12930679 1.24671661 104.01056671 1.24867249 102.85792542 C1.25238954 99.14479658 1.24166277 95.43186157 1.23046875 91.71875 C1.22927737 89.14807152 1.2288237 86.57739261 1.2290802 84.00671387 C1.22751372 78.61300748 1.21945326 73.21937164 1.20581055 67.82568359 C1.19008455 61.58521023 1.18481242 55.34479844 1.1855461 49.1043067 C1.18615601 43.10713067 1.1809461 37.10997982 1.17275429 31.11280823 C1.16956317 28.55782696 1.16759918 26.00284387 1.16686058 23.44786072 C1.16470171 19.88252641 1.15596725 16.31727067 1.14526367 12.75195312 C1.14571686 11.68695084 1.14617004 10.62194855 1.14663696 9.52467346 C1.14237198 8.55718674 1.13810699 7.58970001 1.13371277 6.59289551 C1.13203692 5.74928719 1.13036108 4.90567886 1.12863445 4.03650665 C1.12860163 1.93225272 1.12860163 1.93225272 0 0 Z " fill="#444D5D" transform="translate(183,77)"/>
<path d="M0 0 C0.33 0 0.66 0 1 0 C1.00808685 1.0685321 1.01617371 2.13706421 1.02450562 3.23797607 C1.10195465 13.30267953 1.18969087 23.3672476 1.28752708 33.43177414 C1.33749556 38.60618147 1.38382563 43.78056833 1.421875 48.95507812 C1.45872072 53.94777061 1.50507888 58.94029205 1.55806351 63.93283844 C1.57661122 65.83860528 1.59171779 67.74440878 1.60334396 69.65023041 C1.62019987 72.31745457 1.64923339 74.98428671 1.68115234 77.65136719 C1.68331253 78.4411496 1.68547272 79.23093201 1.68769836 80.04464722 C1.70483367 85.36647714 1.70483367 85.36647714 4 90 C7.05908413 90.81584568 7.05908413 90.81584568 10 91 C10.33 90.01 10.66 89.02 11 88 C13.11328125 87.0390625 13.11328125 87.0390625 16 86 C19.04507264 84.48942525 22.07237458 82.95143407 25.09179688 81.390625 C29.78766741 79 29.78766741 79 32 79 C31.51515724 74.35413108 31.51515724 74.35413108 30 70 C31.485 70.495 31.485 70.495 33 71 C33 73.97 33 76.94 33 80 C32.19175781 80.39832031 31.38351563 80.79664063 30.55078125 81.20703125 C29.48214844 81.73683594 28.41351563 82.26664062 27.3125 82.8125 C26.25675781 83.33457031 25.20101562 83.85664063 24.11328125 84.39453125 C20.46070737 86.27810448 17.00750801 88.26479145 13.6875 90.6875 C9.85764154 92.55789599 7.24955179 92.34270579 3 92 C2.01 91.34 1.02 90.68 0 90 C-0.28613439 87.09929946 -0.37808727 84.41303409 -0.34057617 81.51123047 C-0.34101425 80.63311707 -0.34145233 79.75500366 -0.34190369 78.85028076 C-0.3398086 75.93902584 -0.31644375 73.02834218 -0.29296875 70.1171875 C-0.28737536 68.10222692 -0.28310405 66.08726226 -0.28010559 64.07229614 C-0.26863663 58.76211332 -0.23915182 53.45217563 -0.20599365 48.14208984 C-0.17533693 42.72627072 -0.16160967 37.31041208 -0.14648438 31.89453125 C-0.11428408 21.26291297 -0.06306299 10.63147685 0 0 Z " fill="#8D949D" transform="translate(121,74)"/>
<path d="M0 0 C3.625 -0.1875 3.625 -0.1875 7 0 C7 0.33 7 0.66 7 1 C5.35 1 3.7 1 2 1 C0.94163339 4.17509982 0.79756211 6.64282383 0.68359375 9.98046875 C0.64169922 11.14384766 0.59980469 12.30722656 0.55664062 13.50585938 C0.51732422 14.72080078 0.47800781 15.93574219 0.4375 17.1875 C0.39431641 18.41404297 0.35113281 19.64058594 0.30664062 20.90429688 C0.2004691 23.93608381 0.09842048 26.96795315 0 30 C0.99 30 1.98 30 3 30 C2.67 29.01 2.34 28.02 2 27 C3.8125 25.9375 3.8125 25.9375 6 25 C6.99 25.33 7.98 25.66 9 26 C9 26.99 9 27.98 9 29 C10.98 29 12.96 29 15 29 C15 29.66 15 30.32 15 31 C5.38202625 35.7876136 5.38202625 35.7876136 0 35 C-2.82691164 32.17308836 -2.25835906 30.30058952 -2.265625 26.34765625 C-2.26753845 25.69171982 -2.2694519 25.03578339 -2.27142334 24.35997009 C-2.27278468 22.9721539 -2.26909174 21.58432495 -2.26074219 20.1965332 C-2.25005834 18.07408939 -2.2606296 15.95249525 -2.2734375 13.83007812 C-2.27211556 12.48176897 -2.26955245 11.13346034 -2.265625 9.78515625 C-2.26336914 8.55676025 -2.26111328 7.32836426 -2.25878906 6.06274414 C-2 3 -2 3 0 0 Z " fill="#141D34" transform="translate(166,180)"/>
<path d="M0 0 C0.33 0 0.66 0 1 0 C1.11683393 15.16844268 1.20498839 30.3368646 1.25906086 45.50565624 C1.28483581 52.54892715 1.31997213 59.59191838 1.37719727 66.63500977 C1.43238137 73.43013984 1.4614101 80.22497896 1.47438622 87.02031898 C1.48363525 89.61473481 1.50169617 92.20913446 1.52865028 94.80342674 C1.56486944 98.43334902 1.56994803 102.0620652 1.56762695 105.69213867 C1.58560333 106.7681987 1.60357971 107.84425873 1.62210083 108.95292664 C1.57163673 116.23129178 1.57163673 116.23129178 -1.33235168 120.13642883 C-4.15688835 122.10959938 -6.73842524 122.96222621 -10 124 C-10.33 124.99 -10.66 125.98 -11 127 C-13.475 127.495 -13.475 127.495 -16 128 C-15.505 127.01 -15.505 127.01 -15 126 C-14.34 126 -13.68 126 -13 126 C-13 125.34 -13 124.68 -13 124 C-12.34 124 -11.68 124 -11 124 C-11 123.34 -11 122.68 -11 122 C-10.01 122 -9.02 122 -8 122 C-8 121.34 -8 120.68 -8 120 C-7.360625 119.87625 -6.72125 119.7525 -6.0625 119.625 C-5.0415625 119.315625 -5.0415625 119.315625 -4 119 C-3.505 118.01 -3.505 118.01 -3 117 C-2.34 117 -1.68 117 -1 117 C-0.67 78.39 -0.34 39.78 0 0 Z " fill="#8A909B" transform="translate(245,80)"/>
<path d="M0 0 C2 2 2 2 2.125 5.625 C2.08375 6.73875 2.0425 7.8525 2 9 C0.04414675 10.00484204 -1.91476237 11.00373805 -3.875 12 C-4.96554688 12.556875 -6.05609375 13.11375 -7.1796875 13.6875 C-10 15 -10 15 -12 15 C-12 14.34 -12 13.68 -12 13 C-12.99 13.33 -13.98 13.66 -15 14 C-14.07506212 10.21616321 -13.60628829 8.43306306 -10.375 6.125 C-9.59125 5.75375 -8.8075 5.3825 -8 5 C-9.32 4.34 -10.64 3.68 -12 3 C-7.81168576 0.60667758 -4.84749424 -0.55085162 0 0 Z " fill="#151F36" transform="translate(151,144)"/>
<path d="M0 0 C0.66 0.33 1.32 0.66 2 1 C1.26852753 2.14879639 1.26852753 2.14879639 0.52227783 3.32080078 C-1.52660752 8.27275976 -1.40455553 12.56118245 -1.35644531 17.8671875 C-1.35848969 18.95082581 -1.36053406 20.03446411 -1.36264038 21.15093994 C-1.36564351 24.72579942 -1.34718357 28.30019547 -1.328125 31.875 C-1.32506624 34.36311733 -1.32319101 36.85123637 -1.32244873 39.33935547 C-1.31725968 45.21821682 -1.29801378 51.09690806 -1.27259898 56.97571373 C-1.24767077 62.98685851 -1.24159143 68.99793381 -1.2375679 75.00912476 C-1.23340922 80.14608985 -1.22358796 85.28303037 -1.21169281 90.41998291 C-1.20599863 92.88234257 -1.20123712 95.34470457 -1.19742584 97.80706787 C-1.19054433 101.24902479 -1.17690268 104.69088623 -1.16113281 108.1328125 C-1.16001495 109.14909729 -1.15889709 110.16538208 -1.15774536 111.21246338 C-1.12921004 115.91973455 -0.97717616 120.37110424 0 125 C-2 124 -2 124 -3 121 C-3.08978555 119.36316129 -3.12196747 117.72287086 -3.12025452 116.08357239 C-3.12162918 115.06974991 -3.12300385 114.05592743 -3.12442017 113.01138306 C-3.12082489 111.90008026 -3.11722961 110.78877747 -3.11352539 109.64379883 C-3.11367142 108.47293228 -3.11381744 107.30206573 -3.1139679 106.09571838 C-3.11339025 102.88523724 -3.10837198 99.67479957 -3.10139394 96.4643271 C-3.09514631 93.10908843 -3.09455548 89.75384893 -3.09336853 86.39860535 C-3.09025938 80.04507247 -3.08205158 73.69155678 -3.07201904 67.33803147 C-3.06084501 60.10472827 -3.0553442 52.87142425 -3.05032361 45.63811457 C-3.03986864 30.75873347 -3.02227722 15.87936845 -3 1 C-2.01 0.67 -1.02 0.34 0 0 Z " fill="#68727E" transform="translate(33,73)"/>
<path d="M0 0 C2.4375 0.8125 2.4375 0.8125 5 2 C5.97652357 4.9295707 6.12349505 6.79115848 6.12025452 9.84049988 C6.12162918 10.83749405 6.12300385 11.83448822 6.12442017 12.86169434 C6.12082489 13.95429565 6.11722961 15.04689697 6.11352539 16.17260742 C6.11367142 17.32396683 6.11381744 18.47532623 6.1139679 19.66157532 C6.11326991 23.47622547 6.10548279 27.2908271 6.09765625 31.10546875 C6.09579167 33.74676995 6.09436795 36.3880715 6.09336853 39.02937317 C6.09025948 45.27665829 6.08205182 51.52392592 6.07201904 57.77120334 C6.0608447 64.88358981 6.05534412 71.99597712 6.05032361 79.10837018 C6.03986886 93.73892248 6.02227764 108.36946099 6 123 C5.67 123 5.34 123 5 123 C4.99365209 122.11512925 4.99365209 122.11512925 4.98717594 121.21238232 C4.88392155 106.8658841 4.7752916 92.51943407 4.66066074 78.17302227 C4.60535635 71.23523836 4.55187892 64.2974493 4.50268555 57.35961914 C4.45523445 50.66822695 4.40271449 43.97689232 4.34705925 37.28556252 C4.32662894 34.7286286 4.307917 32.17168038 4.29092598 29.6147213 C4.26689706 26.04216701 4.23684022 22.46971174 4.20532227 18.8972168 C4.1995668 17.83266769 4.19381134 16.76811859 4.18788147 15.67131042 C4.17809265 14.69955872 4.16830383 13.72780701 4.15821838 12.72660828 C4.15176583 11.88132411 4.14531328 11.03603994 4.1386652 10.16514111 C3.95500654 7.2974648 3.4927591 5.4927591 1.4375 3.4375 C0.963125 2.963125 0.48875 2.48875 0 2 C0 1.34 0 0.68 0 0 Z " fill="#DBDDE2" transform="translate(239,72)"/>
<path d="M0 0 C1.32 0.33 2.64 0.66 4 1 C3.01 1 2.02 1 1 1 C1.00222061 2.12530624 1.00444122 3.25061249 1.00672913 4.41001892 C1.02695944 14.9906144 1.0419716 25.57120597 1.05181217 36.15181637 C1.05704128 41.59202312 1.06413943 47.03221431 1.07543945 52.47241211 C1.08626735 57.71785702 1.09227662 62.96328692 1.09487724 68.20874214 C1.09673167 70.21470946 1.10035262 72.22067592 1.10573006 74.22663689 C1.11293919 77.02602824 1.113991 79.82535679 1.11352539 82.62475586 C1.11712067 83.46272705 1.12071594 84.30069824 1.12442017 85.1640625 C1.11405216 90.88594784 1.11405216 90.88594784 0 92 C0 92.99 0 93.98 0 95 C-5.445 95.495 -5.445 95.495 -11 96 C-11 95.34 -11 94.68 -11 94 C-7.7 92.35 -4.4 90.7 -1 89 C-0.67 59.63 -0.34 30.26 0 0 Z " fill="#A1ABB5" transform="translate(175,75)"/>
<path d="M0 0 C-1.75 4.875 -1.75 4.875 -4 6 C-4.99 5.67 -5.98 5.34 -7 5 C-7.66 6.32 -8.32 7.64 -9 9 C-9.66 9 -10.32 9 -11 9 C-10.34 10.32 -9.68 11.64 -9 13 C-8.67 12.01 -8.34 11.02 -8 10 C-7.01 10.33 -6.02 10.66 -5 11 C-5 11.66 -5 12.32 -5 13 C-1.535 12.505 -1.535 12.505 2 12 C-0.27844859 14.81455414 -2.84064198 15.85560264 -6.16015625 17.16796875 C-8.32357966 18.07990261 -8.32357966 18.07990261 -11.25 20.25 C-12.1575 20.8275 -13.065 21.405 -14 22 C-14.99 21.67 -15.98 21.34 -17 21 C-16.34 21 -15.68 21 -15 21 C-15 20.34 -15 19.68 -15 19 C-13.68 18.67 -12.36 18.34 -11 18 C-11.27617533 16.05925139 -11.27617533 16.05925139 -12 14 C-15.22791555 11.8480563 -16.28400809 11.79913557 -20 12 C-19.67 11.34 -19.34 10.68 -19 10 C-15.9375 9.375 -15.9375 9.375 -13 9 C-13 8.34 -13 7.68 -13 7 C-10.6640625 5.2734375 -10.6640625 5.2734375 -7.625 3.375 C-6.62726563 2.74335938 -5.62953125 2.11171875 -4.6015625 1.4609375 C-2 0 -2 0 0 0 Z " fill="#19243B" transform="translate(150,166)"/>
<path d="M0 0 C2.9133181 0.4161883 4.86586184 0.91528116 7.375 2.5 C10.56868987 4.32496564 13.38285574 4.52226397 17 5 C17.66 5.66 18.32 6.32 19 7 C18.67 7.33 18.34 7.66 18 8 C19.423125 8.0928125 19.423125 8.0928125 20.875 8.1875 C21.90625 8.455625 22.9375 8.72375 24 9 C25.0625 11.375 25.0625 11.375 26 14 C28.51364756 15.82619087 28.51364756 15.82619087 31 17 C29.19921875 17.66796875 29.19921875 17.66796875 27 18 C25.39453125 16.92578125 25.39453125 16.92578125 23.8125 15.3125 C20.5706666 12.31156717 17.54609642 10.79458766 13.48828125 9.140625 C8.71304082 6.95166079 4.27442276 4.04402817 0 1 C0 0.67 0 0.34 0 0 Z " fill="#3D4556" transform="translate(179,36)"/>
<path d="M0 0 C0.33 0 0.66 0 1 0 C1.33 16.83 1.66 33.66 2 51 C3.32 51.33 4.64 51.66 6 52 C6.969375 52.66 7.93875 53.32 8.9375 54 C11.82345826 55.88470743 13.63184085 56.60374598 17 57 C17 57.66 17 58.32 17 59 C13.05539612 59.2578628 10.78002038 58.67083662 7.375 56.6875 C6.61960937 56.25824219 5.86421875 55.82898438 5.0859375 55.38671875 C3.02437576 54.01620486 1.55138657 52.92649008 0 51 C-0.36076355 48.70307922 -0.36076355 48.70307922 -0.34057617 45.9777832 C-0.34034958 44.95695145 -0.34012299 43.93611969 -0.33988953 42.88435364 C-0.32440567 41.78427475 -0.30892181 40.68419586 -0.29296875 39.55078125 C-0.28872391 38.4230278 -0.28447906 37.29527435 -0.28010559 36.13334656 C-0.26329311 32.52615633 -0.22563528 28.91952178 -0.1875 25.3125 C-0.17245653 22.86914868 -0.15876754 20.42578863 -0.14648438 17.98242188 C-0.11338116 11.98809118 -0.06315593 5.99408529 0 0 Z " fill="#BDC3CC" transform="translate(113,144)"/>
<path d="M0 0 C0.33 0 0.66 0 1 0 C1.33 24.09 1.66 48.18 2 73 C2.66 73.33 3.32 73.66 4 74 C4 74.66 4 75.32 4 76 C2.68 76 1.36 76 0 76 C0 50.92 0 25.84 0 0 Z " fill="#E4E8ED" transform="translate(134,72)"/>
<path d="M0 0 C0.86625 0.37125 0.86625 0.37125 1.75 0.75 C0.76 2.235 0.76 2.235 -0.25 3.75 C0.74 4.08 1.73 4.41 2.75 4.75 C2.09 5.41 1.43 6.07 0.75 6.75 C0.09 6.75 -0.57 6.75 -1.25 6.75 C0.73 7.74 2.71 8.73 4.75 9.75 C3.625 11.25 3.625 11.25 1.75 12.75 C-1.3125 13.125 -1.3125 13.125 -4.25 12.75 C-6.57749345 9.25875983 -6.75299316 7.85777749 -6.25 3.75 C-3.29485488 -0.36609499 -3.29485488 -0.36609499 0 0 Z " fill="#32384C" transform="translate(128.25,178.25)"/>
<path d="M0 0 C1.1875 2.125 1.1875 2.125 2 4 C4.52733235 4.65555119 4.52733235 4.65555119 7 5 C7.495 5.99 7.495 5.99 8 7 C3.82761946 6.06334314 0.99995388 5.16633106 -2.3125 2.4375 C-6.48909175 -0.80460318 -10.85682105 -0.88616707 -16 -1 C-16 -0.34 -16 0.32 -16 1 C-18.90600261 2.25664978 -20.79604584 3 -24 3 C-24 3.66 -24 4.32 -24 5 C-25.32 4.67 -26.64 4.34 -28 4 C-24.25 1 -24.25 1 -22 1 C-22.33 0.01 -22.66 -0.98 -23 -2 C-15.03561667 -4.12383555 -7.3514762 -3.6757381 0 0 Z " fill="#7F8895" transform="translate(150,17)"/>
<path d="M0 0 C0.33 0.99 0.66 1.98 1 3 C1.99 3.33 2.98 3.66 4 4 C2.27430361 5.13031603 0.54428261 6.25403107 -1.1875 7.375 C-2.15042969 8.00148437 -3.11335938 8.62796875 -4.10546875 9.2734375 C-6.69803936 10.81988312 -9.16853116 11.97508075 -12 13 C-12 13.66 -12 14.32 -12 15 C-16.455 16.485 -16.455 16.485 -21 18 C-21 17.34 -21 16.68 -21 16 C-19.2984375 15.5978125 -19.2984375 15.5978125 -17.5625 15.1875 C-16.386875 14.795625 -15.21125 14.40375 -14 14 C-13.67 13.01 -13.34 12.02 -13 11 C-12.01 11 -11.02 11 -10 11 C-9.90847656 10.39671875 -9.81695312 9.7934375 -9.72265625 9.171875 C-8.82279508 6.46742737 -7.79297981 5.7917686 -5.4375 4.25 C-4.47650391 3.60804688 -4.47650391 3.60804688 -3.49609375 2.953125 C-3.00238281 2.63859375 -2.50867188 2.3240625 -2 2 C-1.67 2.99 -1.34 3.98 -1 5 C-0.67 3.35 -0.34 1.7 0 0 Z " fill="#E0E3E7" transform="translate(149,160)"/>
<path d="M0 0 C-7.00984937 4.86795095 -13.99112597 8.99667224 -22 12 C-21.67 11.01 -21.34 10.02 -21 9 C-20.01 9 -19.02 9 -18 9 C-18 8.34 -18 7.68 -18 7 C-17.34 7 -16.68 7 -16 7 C-16.2784375 6.0409375 -16.2784375 6.0409375 -16.5625 5.0625 C-16.706875 4.381875 -16.85125 3.70125 -17 3 C-16.67 2.67 -16.34 2.34 -16 2 C-14.865625 2.020625 -13.73125 2.04125 -12.5625 2.0625 C-8.94857727 2.41164028 -8.94857727 2.41164028 -7 0 C-2.48387097 -1.24193548 -2.48387097 -1.24193548 0 0 Z " fill="#DEE2E3" transform="translate(206,222)"/>
<path d="M0 0 C0.99 0.33 1.98 0.66 3 1 C3 3.97 3 6.94 3 10 C1.78763672 10.59748047 1.78763672 10.59748047 0.55078125 11.20703125 C-0.51785156 11.73683594 -1.58648437 12.26664063 -2.6875 12.8125 C-4.27111328 13.59560547 -4.27111328 13.59560547 -5.88671875 14.39453125 C-9.53929263 16.27810448 -12.99249199 18.26479145 -16.3125 20.6875 C-20.13068176 22.55219342 -22.76962527 22.34675203 -27 22 C-27.66 21.34 -28.32 20.68 -29 20 C-28.625 17.875 -28.625 17.875 -28 16 C-27.79375 16.639375 -27.5875 17.27875 -27.375 17.9375 C-26.10461791 20.34925077 -26.10461791 20.34925077 -22.875 20.75 C-21.92625 20.8325 -20.9775 20.915 -20 21 C-19.67 20.01 -19.34 19.02 -19 18 C-16.88671875 17.0390625 -16.88671875 17.0390625 -14 16 C-10.95492736 14.48942525 -7.92762542 12.95143407 -4.90820312 11.390625 C-0.21233259 9 -0.21233259 9 2 9 C1.51515724 4.35413108 1.51515724 4.35413108 0 0 Z " fill="#727784" transform="translate(151,144)"/>
<path d="M0 0 C3.625 -0.1875 3.625 -0.1875 7 0 C7 0.33 7 0.66 7 1 C5.35 1 3.7 1 2 1 C1.67 1.99 1.34 2.98 1 4 C0.34 4 -0.32 4 -1 4 C-0.67 13.24 -0.34 22.48 0 32 C5.11366432 33.14002286 5.11366432 33.14002286 9.1875 31.0625 C12.8440678 29 12.8440678 29 15 29 C15 29.66 15 30.32 15 31 C5.38202625 35.7876136 5.38202625 35.7876136 0 35 C-2.82691164 32.17308836 -2.25835906 30.30058952 -2.265625 26.34765625 C-2.26753845 25.69171982 -2.2694519 25.03578339 -2.27142334 24.35997009 C-2.27278468 22.9721539 -2.26909174 21.58432495 -2.26074219 20.1965332 C-2.25005834 18.07408939 -2.2606296 15.95249525 -2.2734375 13.83007812 C-2.27211556 12.48176897 -2.26955245 11.13346034 -2.265625 9.78515625 C-2.26336914 8.55676025 -2.26111328 7.32836426 -2.25878906 6.06274414 C-2 3 -2 3 0 0 Z " fill="#595F6D" transform="translate(166,180)"/>
<path d="M0 0 C0.33 0 0.66 0 1 0 C1.1746397 3.08261456 1.28094067 6.16395833 1.375 9.25 C1.45041016 10.55904297 1.45041016 10.55904297 1.52734375 11.89453125 C1.5846004 14.39473818 1.55752363 16.56041173 1 19 C-1.8359375 21.671875 -1.8359375 21.671875 -5 23 C-5.99 22.67 -6.98 22.34 -8 22 C-8 16.72 -8 11.44 -8 6 C-6 8 -6 8 -5.8046875 10.6015625 C-5.82789063 11.59929687 -5.85109375 12.59703125 -5.875 13.625 C-5.89304688 14.62789062 -5.91109375 15.63078125 -5.9296875 16.6640625 C-5.96449219 17.82035156 -5.96449219 17.82035156 -6 19 C-4.35 18.67 -2.7 18.34 -1 18 C-0.505 9.09 -0.505 9.09 0 0 Z " fill="#C1C7D0" transform="translate(183,176)"/>
<path d="M0 0 C2.1875 0.3125 2.1875 0.3125 4 1 C2.515 2.485 2.515 2.485 1 4 C2.32 4.66 3.64 5.32 5 6 C4.375 7.9375 4.375 7.9375 3 10 C-0.125 10.75 -0.125 10.75 -3 11 C-3.12375 10.360625 -3.2475 9.72125 -3.375 9.0625 C-3.58125 8.381875 -3.7875 7.70125 -4 7 C-4.66 6.67 -5.32 6.34 -6 6 C-4.68 6 -3.36 6 -2 6 C-2.33 5.01 -2.66 4.02 -3 3 C-1.75 1.4375 -1.75 1.4375 0 0 Z " fill="#0A162C" transform="translate(134,200)"/>
<path d="M0 0 C0 0.33 0 0.66 0 1 C-1.98 1 -3.96 1 -6 1 C-6 2.65 -6 4.3 -6 6 C-7.56159059 6.48212214 -9.12431928 6.96055873 -10.6875 7.4375 C-11.55761719 7.70433594 -12.42773438 7.97117187 -13.32421875 8.24609375 C-15.87025921 8.96344529 -18.4003423 9.517541 -21 10 C-15.5322543 4.07660882 -8.28011136 -1.28801732 0 0 Z M-11 8 C-10.34 8.66 -9.68 9.32 -9 10 C-10.98 10.99 -10.98 10.99 -13 12 C-12.34 10.68 -11.68 9.36 -11 8 Z " fill="#131B34" transform="translate(109,58)"/>
<path d="M0 0 C0.33 0.66 0.66 1.32 1 2 C0.67 2.99 0.34 3.98 0 5 C-0.66 5 -1.32 5 -2 5 C-2 5.66 -2 6.32 -2 7 C-0.68 6.67 0.64 6.34 2 6 C2 6.99 2 7.98 2 9 C0.68 9 -0.64 9 -2 9 C-2 9.66 -2 10.32 -2 11 C-2.66 11 -3.32 11 -4 11 C-4.66 10.34 -5.32 9.68 -6 9 C-6.99 10.485 -6.99 10.485 -8 12 C-8.66 10.35 -9.32 8.7 -10 7 C-8.25 5 -8.25 5 -6 3 C-4.68 3 -3.36 3 -2 3 C-1.34 2.01 -0.68 1.02 0 0 Z " fill="#06152D" transform="translate(149,168)"/>
<path d="M0 0 C1.258125 -0.04125 2.51625 -0.0825 3.8125 -0.125 C4.52019531 -0.14820313 5.22789062 -0.17140625 5.95703125 -0.1953125 C8 0 8 0 11 2 C12.423125 2.4021875 12.423125 2.4021875 13.875 2.8125 C17.54658667 4.20770294 19.40544528 6.10020355 22 9 C18.59687262 7.94124926 15.98646769 6.99097846 13 5 C7.9785691 2.71753141 5.14430832 3.148049 0 5 C0 3.35 0 1.7 0 0 Z " fill="#1B2236" transform="translate(166,59)"/>
<path d="M0 0 C0.99 0.33 1.98 0.66 3 1 C3 1.66 3 2.32 3 3 C6.465 2.505 6.465 2.505 10 2 C7.72155141 4.81455414 5.15935802 5.85560264 1.83984375 7.16796875 C-0.32357966 8.07990261 -0.32357966 8.07990261 -3.25 10.25 C-4.1575 10.8275 -5.065 11.405 -6 12 C-6.99 11.67 -7.98 11.34 -9 11 C-8.34 11 -7.68 11 -7 11 C-7 10.34 -7 9.68 -7 9 C-5.68 8.67 -4.36 8.34 -3 8 C-3.33 6.35 -3.66 4.7 -4 3 C-2.68 2.67 -1.36 2.34 0 2 C0 1.34 0 0.68 0 0 Z " fill="#3E4759" transform="translate(142,176)"/>
<path d="M0 0 C1.32 0 2.64 0 4 0 C4 0.66 4 1.32 4 2 C4.86625 2.185625 4.86625 2.185625 5.75 2.375 C8.02335767 3.00648824 9.9253529 3.88858191 12 5 C12 5.66 12 6.32 12 7 C14.97 7.33 17.94 7.66 21 8 C21.33 9.65 21.66 11.3 22 13 C18.22041785 12.44398441 15.79484542 11.45411339 12.6875 9.25 C9.00832205 6.68815629 5.27351979 4.29340665 1.43359375 1.98046875 C0.96050781 1.65691406 0.48742188 1.33335937 0 1 C0 0.67 0 0.34 0 0 Z " fill="#B2B9C0" transform="translate(38,202)"/>
<path d="M0 0 C0 0.33 0 0.66 0 1 C-2.31 1 -4.62 1 -7 1 C-8.12183708 4.36551123 -8.20800968 7.09060232 -8.31640625 10.63671875 C-8.35830078 11.93544922 -8.40019531 13.23417969 -8.44335938 14.57226562 C-8.48316987 15.94400761 -8.52288216 17.31575244 -8.5625 18.6875 C-8.60570835 20.07097645 -8.64932339 21.45444027 -8.69335938 22.83789062 C-8.79958028 26.22515719 -8.90162358 29.61249799 -9 33 C-9.33 33 -9.66 33 -10 33 C-10.07406517 28.4793661 -10.12856045 23.959084 -10.16479492 19.43798828 C-10.17989711 17.89951426 -10.20038046 16.36108339 -10.22631836 14.82275391 C-10.26264074 12.61349859 -10.27971119 10.40481152 -10.29296875 8.1953125 C-10.30845261 7.50567413 -10.32393646 6.81603577 -10.33988953 6.10549927 C-10.34057617 4.16455078 -10.34057617 4.16455078 -10 1 C-6.1496895 -1.56687367 -4.41430237 -0.83288724 0 0 Z " fill="#ABB0B9" transform="translate(173,179)"/>
<path d="M0 0 C1.80230168 3.82989106 2.19622241 6.78121808 2 11 C0.35 11.33 -1.3 11.66 -3 12 C-2.34 11.01 -1.68 10.02 -1 9 C-0.60986284 7.0103005 -0.26797351 5.00980131 0 3 C-5.06597533 2.82827202 -8.30949002 2.98978144 -13 5 C-13.99 4.67 -14.98 4.34 -16 4 C-10.4174808 0.67424388 -6.50313209 -0.46450943 0 0 Z " fill="#B1B6BF" transform="translate(154,191)"/>
<path d="M0 0 C1.65 0 3.3 0 5 0 C6.59412284 3.18824568 6.10174735 6.62896662 6.0625 10.125 C6.05798828 10.87910156 6.05347656 11.63320312 6.04882812 12.41015625 C6.03703499 14.27347127 6.01909942 16.13674555 6 18 C5.67 18 5.34 18 5 18 C4.67 14.7 4.34 11.4 4 8 C3.01 7.67 2.02 7.34 1 7 C-0.25 4.5625 -0.25 4.5625 -1 2 C-0.67 1.34 -0.34 0.68 0 0 Z " fill="#131D32" transform="translate(168,181)"/>
<path d="M0 0 C5.75 -0.125 5.75 -0.125 8 1 C8.375 3.6875 8.375 3.6875 8 7 C6.1858385 9.28066018 4.51005088 10.37584943 2 12 C1.01 11.67 0.02 11.34 -1 11 C0.65 10.01 2.3 9.02 4 8 C3.73343428 5.06556598 3.73343428 5.06556598 3 2 C2.01 1.34 1.02 0.68 0 0 Z " fill="#3C4252" transform="translate(146,193)"/>
<path d="M0 0 C0.66 0.33 1.32 0.66 2 1 C-1.39622642 4.89937107 -1.39622642 4.89937107 -4.625 5.4375 C-5.40875 5.623125 -6.1925 5.80875 -7 6 C-8.37466625 8.47636012 -8.37466625 8.47636012 -9 11 C-9.33 10.34 -9.66 9.68 -10 9 C-12.02463255 8.34786708 -12.02463255 8.34786708 -14 8 C-12.41779413 7.03980636 -10.83418669 6.08192202 -9.25 5.125 C-7.92742188 4.32449219 -7.92742188 4.32449219 -6.578125 3.5078125 C-1.97546012 0.81595092 -1.97546012 0.81595092 0 0 Z " fill="#BFC6D0" transform="translate(61,57)"/>
<path d="M0 0 C2.64 0 5.28 0 8 0 C8.20625 0.7425 8.4125 1.485 8.625 2.25 C10.39615589 5.79231177 12.63427951 7.02446841 16 9 C15.01 9.495 15.01 9.495 14 10 C12.08984375 9.29296875 12.08984375 9.29296875 9.9375 8.1875 C9.22464844 7.83042969 8.51179687 7.47335938 7.77734375 7.10546875 C6 6 6 6 5 4 C3.34051852 2.98812105 1.67419438 1.9873454 0 1 C0 0.67 0 0.34 0 0 Z " fill="#434B57" transform="translate(160,24)"/>
<path d="M0 0 C-1.98 0.99 -1.98 0.99 -4 2 C-4 2.66 -4 3.32 -4 4 C-4.83144531 4.27263672 -4.83144531 4.27263672 -5.6796875 4.55078125 C-6.40414062 4.80214844 -7.12859375 5.05351562 -7.875 5.3125 C-8.95394531 5.67794922 -8.95394531 5.67794922 -10.0546875 6.05078125 C-12.33994905 6.96335547 -12.33994905 6.96335547 -14 10 C-15.32 9.67 -16.64 9.34 -18 9 C-14.96821876 6.38929949 -12.8345758 4.95864395 -9 4 C-8.67 3.01 -8.34 2.02 -8 1 C-2.59770115 -1.29885057 -2.59770115 -1.29885057 0 0 Z " fill="#8C949C" transform="translate(184,235)"/>
<path d="M0 0 C1.32 0 2.64 0 4 0 C4.33 1.98 4.66 3.96 5 6 C2.6875 6.625 2.6875 6.625 0 7 C-0.99 6.34 -1.98 5.68 -3 5 C-2.67 4.34 -2.34 3.68 -2 3 C-1.34 3 -0.68 3 0 3 C0 2.01 0 1.02 0 0 Z " fill="#081328" transform="translate(147,145)"/>
<path d="M0 0 C3.37462715 0.54723683 5.08235 1.0549 8 3 C8.34057617 5.43017578 8.34057617 5.43017578 8.29296875 8.4453125 C8.28330078 9.52167969 8.27363281 10.59804687 8.26367188 11.70703125 C8.23853516 12.83496094 8.21339844 13.96289062 8.1875 15.125 C8.17396484 16.26066406 8.16042969 17.39632812 8.14648438 18.56640625 C8.11104319 21.37807387 8.06163517 24.18880417 8 27 C7.67 27 7.34 27 7 27 C7 19.41 7 11.82 7 4 C5.68 3.67 4.36 3.34 3 3 C1.25 1.4375 1.25 1.4375 0 0 Z " fill="#C7CAD2" transform="translate(190,69)"/>
<path d="M0 0 C0.5625 1.9375 0.5625 1.9375 1 4 C0.67 4.33 0.34 4.66 0 5 C0 5.99 0 6.98 0 8 C-3.63 8.33 -7.26 8.66 -11 9 C-11 8.34 -11 7.68 -11 7 C-10.28972656 6.66226563 -9.57945312 6.32453125 -8.84765625 5.9765625 C-7.92855469 5.53054687 -7.00945312 5.08453125 -6.0625 4.625 C-4.68771484 3.96371094 -4.68771484 3.96371094 -3.28515625 3.2890625 C-0.87096198 2.20800838 -0.87096198 2.20800838 0 0 Z " fill="#C0C6CC" transform="translate(175,162)"/>
<path d="M0 0 C0.66 0 1.32 0 2 0 C0.549046 3.82524236 -1.38181932 5.19090966 -5 7 C-5.66 7 -6.32 7 -7 7 C-7.33 7.99 -7.66 8.98 -8 10 C-9.65 10.33 -11.3 10.66 -13 11 C-12.67 10.34 -12.34 9.68 -12 9 C-11.34 9 -10.68 9 -10 9 C-10 8.34 -10 7.68 -10 7 C-9.34 7 -8.68 7 -8 7 C-8 6.34 -8 5.68 -8 5 C-7.01 5 -6.02 5 -5 5 C-5 4.34 -5 3.68 -5 3 C-4.360625 2.87625 -3.72125 2.7525 -3.0625 2.625 C-2.381875 2.41875 -1.70125 2.2125 -1 2 C-0.67 1.34 -0.34 0.68 0 0 Z " fill="#B7BBC5" transform="translate(242,197)"/>
<path d="M0 0 C0.86625 0.37125 0.86625 0.37125 1.75 0.75 C0.76 2.235 0.76 2.235 -0.25 3.75 C0.74 4.08 1.73 4.41 2.75 4.75 C2.09 5.41 1.43 6.07 0.75 6.75 C-1.725 5.76 -1.725 5.76 -4.25 4.75 C-4.58 6.4 -4.91 8.05 -5.25 9.75 C-5.58 9.75 -5.91 9.75 -6.25 9.75 C-6.58102914 6.1086795 -6.67019439 4.33527075 -4.5 1.3125 C-2.25 -0.25 -2.25 -0.25 0 0 Z " fill="#384358" transform="translate(128.25,178.25)"/>
<path d="M0 0 C2.31 0.33 4.62 0.66 7 1 C7 1.66 7 2.32 7 3 C8.98 2.67 10.96 2.34 13 2 C13.33 3.98 13.66 5.96 14 8 C13.15501953 7.566875 13.15501953 7.566875 12.29296875 7.125 C9.22468301 5.61960598 6.07730362 4.32044145 2.92578125 3 C1 2 1 2 0 0 Z " fill="#CBD0D5" transform="translate(98,237)"/>
<path d="M0 0 C-0.639375 0.103125 -1.27875 0.20625 -1.9375 0.3125 C-2.618125 0.539375 -3.29875 0.76625 -4 1 C-4.33 1.99 -4.66 2.98 -5 4 C-7.28515625 5.16796875 -7.28515625 5.16796875 -10.0625 6.1875 C-11.44115234 6.70376953 -11.44115234 6.70376953 -12.84765625 7.23046875 C-13.55792969 7.48441406 -14.26820313 7.73835937 -15 8 C-15 7.34 -15 6.68 -15 6 C-14.01 6 -13.02 6 -12 6 C-11.67 4.68 -11.34 3.36 -11 2 C-9.68 2.33 -8.36 2.66 -7 3 C-7 2.01 -7 1.02 -7 0 C-3.98968256 -0.93423645 -3.13349732 -1.04449911 0 0 Z " fill="#CFD4DB" transform="translate(223,212)"/>
<path d="M0 0 C0 0.33 0 0.66 0 1 C-0.92232422 1.09087891 -0.92232422 1.09087891 -1.86328125 1.18359375 C-2.67152344 1.26738281 -3.47976562 1.35117188 -4.3125 1.4375 C-5.11300781 1.51871094 -5.91351563 1.59992187 -6.73828125 1.68359375 C-9.16087179 1.95265693 -9.16087179 1.95265693 -12 3 C-12.33 3.99 -12.66 4.98 -13 6 C-13.99 6 -14.98 6 -16 6 C-16 6.66 -16 7.32 -16 8 C-17.32 7.67 -18.64 7.34 -20 7 C-16.25 4 -16.25 4 -14 4 C-14.33 3.01 -14.66 2.02 -15 1 C-10.03926578 -0.32286246 -5.08888488 -0.08893197 0 0 Z " fill="#586071" transform="translate(142,14)"/>
<path d="M0 0 C1.9375 0.75 1.9375 0.75 4 2 C4.75 4.125 4.75 4.125 5 6 C4.01 6.33 3.02 6.66 2 7 C1.484375 7.515625 0.96875 8.03125 0.4375 8.5625 C-0.2740625 9.2740625 -0.2740625 9.2740625 -1 10 C-1.66 10 -2.32 10 -3 10 C-3 9.01 -3 8.02 -3 7 C-2.34 6.67 -1.68 6.34 -1 6 C-0.34227572 2.97065509 -0.34227572 2.97065509 0 0 Z " fill="#F4F4F8" transform="translate(134,165)"/>
<path d="M0 0 C0 4.95 0 9.9 0 15 C-0.33 15 -0.66 15 -1 15 C-1.36220266 13.20994059 -1.71452469 11.41787943 -2.0625 9.625 C-2.25972656 8.62726563 -2.45695313 7.62953125 -2.66015625 6.6015625 C-3 4 -3 4 -2 2 C-3.65 2 -5.3 2 -7 2 C-7 1.34 -7 0.68 -7 0 C-5 -1 -5 -1 0 0 Z " fill="#040F25" transform="translate(131,73)"/>
<path d="M0 0 C0.9075 0.103125 1.815 0.20625 2.75 0.3125 C2.75 1.6325 2.75 2.9525 2.75 4.3125 C-0.55 4.6425 -3.85 4.9725 -7.25 5.3125 C-4.05 0.38942308 -4.05 0.38942308 0 0 Z " fill="#1E2739" transform="translate(89.25,67.6875)"/>
<path d="M0 0 C-1.95245185 1.19714555 -3.91214997 2.38248074 -5.875 3.5625 C-6.96554688 4.22378906 -8.05609375 4.88507812 -9.1796875 5.56640625 C-10.57574219 6.27603516 -10.57574219 6.27603516 -12 7 C-12.66 6.67 -13.32 6.34 -14 6 C-13.34 4.68 -12.68 3.36 -12 2 C-10.68 2.33 -9.36 2.66 -8 3 C-8.33 2.01 -8.66 1.02 -9 0 C-2.25 -1.125 -2.25 -1.125 0 0 Z " fill="#3A4251" transform="translate(120,24)"/>
<path d="M0 0 C3.85025879 0.60355408 6.86101159 1.76772603 10.3125 3.5625 C11.19550781 4.01753906 12.07851562 4.47257812 12.98828125 4.94140625 C13.65214844 5.29074219 14.31601563 5.64007813 15 6 C14.67 6.66 14.34 7.32 14 8 C10.37 6.68 6.74 5.36 3 4 C3 3.34 3 2.68 3 2 C2.01 1.67 1.02 1.34 0 1 C0 0.67 0 0.34 0 0 Z " fill="#6E7683" transform="translate(223,62)"/>
<path d="M0 0 C1.32 0 2.64 0 4 0 C4 0.66 4 1.32 4 2 C4.556875 2.103125 5.11375 2.20625 5.6875 2.3125 C8 3 8 3 10.5625 4.5625 C12.95904831 6.25399251 12.95904831 6.25399251 16 6 C16 6.99 16 7.98 16 9 C11.70825627 7.94730814 8.98393179 7.24340412 6 4 C4.02379014 2.95377125 2.0262871 1.94560065 0 1 C0 0.67 0 0.34 0 0 Z " fill="#4B5264" transform="translate(104,202)"/>
<path d="M0 0 C0 0.66 0 1.32 0 2 C-1.423125 2.3403125 -1.423125 2.3403125 -2.875 2.6875 C-6.19323388 3.69083714 -6.19323388 3.69083714 -7.375 6.625 C-7.58125 7.40875 -7.7875 8.1925 -8 9 C-8.33 8.34 -8.66 7.68 -9 7 C-9.99 6.67 -10.98 6.34 -12 6 C-10.70903219 5.18639005 -9.41720125 4.37414954 -8.125 3.5625 C-7.04605469 2.88380859 -7.04605469 2.88380859 -5.9453125 2.19140625 C-2.36721311 0 -2.36721311 0 0 0 Z " fill="#B5B8C0" transform="translate(164,171)"/>
<path d="M0 0 C0.66 0.33 1.32 0.66 2 1 C-1.17320782 4.53586014 -3.16743695 6.58578031 -8 7 C-8 7.66 -8 8.32 -8 9 C-9.32 8.67 -10.64 8.34 -12 8 C-11.21753906 7.50628906 -10.43507813 7.01257812 -9.62890625 6.50390625 C-8.61699219 5.86324219 -7.60507813 5.22257812 -6.5625 4.5625 C-5.55316406 3.92441406 -4.54382813 3.28632812 -3.50390625 2.62890625 C-1.15446165 1.22350458 -1.15446165 1.22350458 0 0 Z " fill="#C1C8CF" transform="translate(84,43)"/>
<path d="M0 0 C5.43261068 0.63913067 9.38223392 3.0586807 12.875 7.25 C13.24625 7.8275 13.6175 8.405 14 9 C11.07377109 7.55362598 8.18213061 6.05576668 5.3125 4.5 C4.52488281 4.0771875 3.73726562 3.654375 2.92578125 3.21875 C1 2 1 2 0 0 Z " fill="#6A717E" transform="translate(179,36)"/>
<path d="M0 0 C-0.33 0.66 -0.66 1.32 -1 2 C-1.66 2 -2.32 2 -3 2 C-3 3.65 -3 5.3 -3 7 C-3.99 6.67 -4.98 6.34 -6 6 C-5.34 5.01 -4.68 4.02 -4 3 C-4.94875 3.515625 -5.8975 4.03125 -6.875 4.5625 C-7.90625 5.036875 -8.9375 5.51125 -10 6 C-10.66 5.67 -11.32 5.34 -12 5 C-10.66272409 2.32544817 -9.26711677 2.01118615 -6.5625 0.8125 C-5.75941406 0.44769531 -4.95632812 0.08289063 -4.12890625 -0.29296875 C-2 -1 -2 -1 0 0 Z " fill="#4B5363" transform="translate(217,217)"/>
<path d="M0 0 C0.51949219 0.39832031 1.03898437 0.79664063 1.57421875 1.20703125 C5.27926842 4.02177323 8.93575065 6.71385974 13 9 C8.97353778 9 5.58987802 7.79493901 2 6 C1.27306096 4.02111039 0.60183749 2.02045442 0 0 Z " fill="#5C6371" transform="translate(33,198)"/>
<path d="M0 0 C-3.75 3 -3.75 3 -6 3 C-6 3.66 -6 4.32 -6 5 C-10.455 6.485 -10.455 6.485 -15 8 C-15 7.34 -15 6.68 -15 6 C-13.865625 5.731875 -12.73125 5.46375 -11.5625 5.1875 C-10.386875 4.795625 -9.21125 4.40375 -8 4 C-7.67 3.01 -7.34 2.02 -7 1 C-2.55696203 -1.27848101 -2.55696203 -1.27848101 0 0 Z " fill="#969BAA" transform="translate(143,170)"/>
<path d="M0 0 C6.03280791 1.6166348 9.950809 3.16709462 14 8 C10.59687262 6.94124926 7.98646769 5.99097846 5 4 C3.34450469 3.61500109 1.6777567 3.27206865 0 3 C0 2.01 0 1.02 0 0 Z " fill="#6B7180" transform="translate(174,60)"/>
<path d="M0 0 C1.32 0 2.64 0 4 0 C4.6875 1.8125 4.6875 1.8125 5 4 C3.6875 5.75 3.6875 5.75 2 7 C1.34 7 0.68 7 0 7 C0 6.01 0 5.02 0 4 C-0.66 4 -1.32 4 -2 4 C-1.34 2.68 -0.68 1.36 0 0 Z " fill="#192339" transform="translate(186,199)"/>
<path d="M0 0 C0.66 0.33 1.32 0.66 2 1 C1.175 1.598125 0.35 2.19625 -0.5 2.8125 C-1.325 3.534375 -2.15 4.25625 -3 5 C-3 5.99 -3 6.98 -3 8 C-5.31 7.67 -7.62 7.34 -10 7 C-7.20283196 3.70921407 -3.80471422 1.93694542 0 0 Z " fill="#374250" transform="translate(142,194)"/>
<path d="M0 0 C2.31 0 4.62 0 7 0 C6.8125 2.375 6.8125 2.375 6 5 C3.4375 6.3125 3.4375 6.3125 1 7 C1.33 6.01 1.66 5.02 2 4 C2.66 4 3.32 4 4 4 C4 3.34 4 2.68 4 2 C2.02 2.99 2.02 2.99 0 4 C0 2.68 0 1.36 0 0 Z " fill="#141B30" transform="translate(103,59)"/>
<path d="M0 0 C3.16115776 1.36983503 3.9927092 1.9890638 6 5 C4.68 4.67 3.36 4.34 2 4 C2 4.66 2 5.32 2 6 C0.68 6 -0.64 6 -2 6 C-1.49396008 3.83125748 -1.00016187 2.00032373 0 0 Z " fill="#1A213E" transform="translate(111,194)"/>
<path d="M0 0 C-1.42859407 1.03325986 -2.86822383 2.05127634 -4.3125 3.0625 C-5.51326172 3.91521484 -5.51326172 3.91521484 -6.73828125 4.78515625 C-7.48464844 5.18605469 -8.23101562 5.58695313 -9 6 C-9.99 5.67 -10.98 5.34 -12 5 C-7.72451559 0.2358888 -7.72451559 0.2358888 -4.3125 -0.875 C-2 -1 -2 -1 0 0 Z " fill="#BDC5CB" transform="translate(206,222)"/>
<path d="M0 0 C-1.485 2.475 -1.485 2.475 -3 5 C-3.99 4.67 -4.98 4.34 -6 4 C-8.00875442 4.27571139 -10.01178687 4.60235737 -12 5 C-3.89473684 -1.94736842 -3.89473684 -1.94736842 0 0 Z " fill="#4F5467" transform="translate(231,209)"/>
<path d="M0 0 C-1.32 0.33 -2.64 0.66 -4 1 C-4 1.99 -4 2.98 -4 4 C-4.66 4 -5.32 4 -6 4 C-6.33 4.99 -6.66 5.98 -7 7 C-7.33 6.01 -7.66 5.02 -8 4 C-10.01508358 3.26676204 -10.01508358 3.26676204 -12 3 C-7.77050005 0.58314288 -4.87664009 -0.34833144 0 0 Z " fill="#282E42" transform="translate(151,144)"/>
<path d="M0 0 C1.98 0 3.96 0 6 0 C3.16009903 2.31399338 0.54741874 3.999446 -3 5 C-3.99 4.34 -4.98 3.68 -6 3 C-6 2.34 -6 1.68 -6 1 C-4.02 1 -2.04 1 0 1 C0 0.67 0 0.34 0 0 Z " fill="#141D34" transform="translate(95,72)"/>
<path d="M0 0 C0 0.66 0 1.32 0 2 C-3.50331713 5.40027839 -6.15833214 6.54961229 -11 7 C-4.36842105 0 -4.36842105 0 0 0 Z " fill="#D2D7DF" transform="translate(110,30)"/>
<path d="M0 0 C0.33 0.66 0.66 1.32 1 2 C2.64363134 2.72159424 4.31050386 3.39351421 6 4 C5.01 4.495 5.01 4.495 4 5 C4 5.66 4 6.32 4 7 C2.02 7.33 0.04 7.66 -2 8 C-1.67 7.236875 -1.34 6.47375 -1 5.6875 C0.17436686 3.00930865 0.17436686 3.00930865 0 0 Z " fill="#1B2439" transform="translate(118,16)"/>
<path d="M0 0 C-0.33 1.65 -0.66 3.3 -1 5 C-3.64 5.33 -6.28 5.66 -9 6 C-3.15384615 0 -3.15384615 0 0 0 Z " fill="#414A5B" transform="translate(159,249)"/>
<path d="M0 0 C-0.6875 1.9375 -0.6875 1.9375 -2 4 C-4.625 4.75 -4.625 4.75 -7 5 C-6.625 3.0625 -6.625 3.0625 -6 1 C-4 0 -4 0 0 0 Z " fill="#B0B6C1" transform="translate(188,206)"/>
<path d="M0 0 C-0.6875 2.4375 -0.6875 2.4375 -2 5 C-4.5 5.875 -4.5 5.875 -7 6 C-7.66 5.67 -8.32 5.34 -9 5 C-7.87926138 4.16094435 -6.75325453 3.32892169 -5.625 2.5 C-4.99851563 2.0359375 -4.37203125 1.571875 -3.7265625 1.09375 C-2 0 -2 0 0 0 Z " fill="#353D4D" transform="translate(150,166)"/>
<path d="M0 0 C4.10958767 1.45044271 7.43258745 3.51110752 11 6 C9 7 9 7 6.9375 6.6875 C5 6 5 6 4 4 C1.97536745 3.34786708 1.97536745 3.34786708 0 3 C0 2.01 0 1.02 0 0 Z " fill="#40495C" transform="translate(88,232)"/>
<path d="M0 0 C0.33 0.66 0.66 1.32 1 2 C1.66 2.33 2.32 2.66 3 3 C2.34 3 1.68 3 1 3 C1 3.66 1 4.32 1 5 C-0.98 5.66 -2.96 6.32 -5 7 C-5 6.01 -5 5.02 -5 4 C-4.01 4 -3.02 4 -2 4 C-1.34 2.68 -0.68 1.36 0 0 Z " fill="#242B41" transform="translate(163,166)"/>
<path d="M0 0 C-1.43570266 0.81567174 -2.87363434 1.62742093 -4.3125 2.4375 C-5.51326172 3.11619141 -5.51326172 3.11619141 -6.73828125 3.80859375 C-9 5 -9 5 -12 6 C-12 5.34 -12 4.68 -12 4 C-10.390625 2.67578125 -10.390625 2.67578125 -8.25 1.3125 C-7.55390625 0.85488281 -6.8578125 0.39726563 -6.140625 -0.07421875 C-3.60909275 -1.16906025 -2.53899138 -0.9435441 0 0 Z " fill="#878C9B" transform="translate(47,67)"/>
<path d="M0 0 C0 0.66 0 1.32 0 2 C-3.45730521 4.44045073 -6.96678237 5.78065514 -11 7 C-8.52653212 3.01496841 -4.89193403 0 0 0 Z " fill="#6D7582" transform="translate(146,156)"/>
<path d="M0 0 C1.48253267 0.61697319 2.96095174 1.24383896 4.4375 1.875 C5.67306641 2.39707031 5.67306641 2.39707031 6.93359375 2.9296875 C9 4 9 4 10 6 C7.69 6 5.38 6 3 6 C2.67 5.01 2.34 4.02 2 3 C1.34 2.67 0.68 2.34 0 2 C0 1.34 0 0.68 0 0 Z " fill="#D1D7DE" transform="translate(229,66)"/>
<path d="M0 0 C0.66 0.33 1.32 0.66 2 1 C2 1.33 2 1.66 2 2 C2.66 2.66 3.32 3.32 4 4 C1 6 1 6 -2 6 C-2 5.01 -2 4.02 -2 3 C-2.66 2.67 -3.32 2.34 -4 2 C-2.125 0.9375 -2.125 0.9375 0 0 Z " fill="#EBF1F1" transform="translate(130,18)"/>
<path d="M0 0 C0.66 0.33 1.32 0.66 2 1 C1.3125 2.9375 1.3125 2.9375 0 5 C-2.625 5.75 -2.625 5.75 -5 6 C-3.63016497 2.83884224 -3.0109362 2.0072908 0 0 Z " fill="#202E3F" transform="translate(203,223)"/>
<path d="M0 0 C1.40907283 2.81814566 0.50872691 4.17277204 -0.4375 7.125 C-0.72496094 8.03507812 -1.01242188 8.94515625 -1.30859375 9.8828125 C-1.53675781 10.58148438 -1.76492187 11.28015625 -2 12 C-2.33 12 -2.66 12 -3 12 C-3.36923077 4.61538462 -3.36923077 4.61538462 -1.5 1.5 C-1.005 1.005 -0.51 0.51 0 0 Z " fill="#D4DAE2" transform="translate(35,73)"/>
<path d="M0 0 C2.6465335 2.6465335 3.59941997 5.56221264 5 9 C3.68 8.34 2.36 7.68 1 7 C1 6.01 1 5.02 1 4 C-0.32 3.34 -1.64 2.68 -3 2 C-2.01 1.34 -1.02 0.68 0 0 Z " fill="#283648" transform="translate(237,64)"/>
<path d="M0 0 C0.8353125 0.37125 0.8353125 0.37125 1.6875 0.75 C-0.5625 2.8125 -0.5625 2.8125 -3.3125 4.75 C-5.625 4.5 -5.625 4.5 -7.3125 3.75 C-2.88173077 -0.31153846 -2.88173077 -0.31153846 0 0 Z " fill="#B5BBC4" transform="translate(70.3125,52.25)"/>
<path d="M0 0 C0 1.98 0 3.96 0 6 C-0.99 6 -1.98 6 -3 6 C-3.99 6.495 -3.99 6.495 -5 7 C-4.6875 4.625 -4.6875 4.625 -4 2 C-1 0 -1 0 0 0 Z " fill="#091326" transform="translate(248,197)"/>
<path d="M0 0 C0.66 0.33 1.32 0.66 2 1 C1.01 1.33 0.02 1.66 -1 2 C-1 2.66 -1 3.32 -1 4 C-4 6 -4 6 -6.1875 5.625 C-6.785625 5.41875 -7.38375 5.2125 -8 5 C-6.71475739 4.13619741 -5.42157581 3.28419631 -4.125 2.4375 C-3.04605469 1.72400391 -3.04605469 1.72400391 -1.9453125 0.99609375 C-1.30335937 0.66738281 -0.66140625 0.33867188 0 0 Z " fill="#56606E" transform="translate(96,62)"/>
<path d="M0 0 C1.98 0 3.96 0 6 0 C4.1875 2 4.1875 2 2 4 C1.01 4 0.02 4 -1 4 C-0.67 2.68 -0.34 1.36 0 0 Z " fill="#343D52" transform="translate(58,55)"/>
<path d="M0 0 C0.66 0 1.32 0 2 0 C2 1.65 2 3.3 2 5 C1.01 5 0.02 5 -1 5 C-1 4.34 -1 3.68 -1 3 C-2.65 3 -4.3 3 -6 3 C-5.67 2.34 -5.34 1.68 -5 1 C-3.35 1.33 -1.7 1.66 0 2 C0 1.34 0 0.68 0 0 Z " fill="#1F2A40" transform="translate(130,201)"/>
<path d="M0 0 C0.99 0 1.98 0 3 0 C2.67 1.98 2.34 3.96 2 6 C0.68 5.67 -0.64 5.34 -2 5 C-1.34 3.35 -0.68 1.7 0 0 Z " fill="#F6F4F6" transform="translate(152,178)"/>
<path d="M0 0 C2.4375 0.6875 2.4375 0.6875 5 2 C5.8125 4.625 5.8125 4.625 6 7 C1.2 4.53846154 1.2 4.53846154 0.1875 1.8125 C0.125625 1.214375 0.06375 0.61625 0 0 Z " fill="#B1B9C2" transform="translate(239,72)"/>
<path d="M0 0 C0.66 0.33 1.32 0.66 2 1 C1.01 2.98 0.02 4.96 -1 7 C-1.66 7 -2.32 7 -3 7 C-3 5.02 -3 3.04 -3 1 C-2.01 0.67 -1.02 0.34 0 0 Z " fill="#3E495B" transform="translate(33,73)"/>
<path d="M0 0 C3.0831351 1.19899698 6.06279492 2.47700477 9 4 C6.21176345 5.0326802 5.1322726 5.04509293 2.25 4.0625 C1.5075 3.711875 0.765 3.36125 0 3 C0 2.01 0 1.02 0 0 Z " fill="#9198A1" transform="translate(210,54)"/>
<path d="M0 0 C0.66 0.33 1.32 0.66 2 1 C0.84826645 3.46800047 -0.04783565 5.04783565 -2 7 C-2.33 6.34 -2.66 5.68 -3 5 C-2.67 4.34 -2.34 3.68 -2 3 C-2.66 2.67 -3.32 2.34 -4 2 C-2.125 0.9375 -2.125 0.9375 0 0 Z " fill="#F0F0F3" transform="translate(152,154)"/>
<path d="M0 0 C0.66 0 1.32 0 2 0 C2 1.65 2 3.3 2 5 C0.02 5.99 0.02 5.99 -2 7 C-1.34 4.69 -0.68 2.38 0 0 Z " fill="#E7EFED" transform="translate(160,153)"/>
<path d="M0 0 C-0.66 1.65 -1.32 3.3 -2 5 C-2.33 4.34 -2.66 3.68 -3 3 C-5.02463255 2.34786708 -5.02463255 2.34786708 -7 2 C-4.35261084 0.5393715 -3.10551666 0 0 0 Z " fill="#D5DBDF" transform="translate(54,63)"/>
<path d="M0 0 C2.31 0 4.62 0 7 0 C5.694761 2.61047801 4.64173426 2.68066423 1.9375 3.625 C0.83728516 4.01558594 0.83728516 4.01558594 -0.28515625 4.4140625 C-0.85105469 4.60742188 -1.41695312 4.80078125 -2 5 C-1.34 3.35 -0.68 1.7 0 0 Z " fill="#242E42" transform="translate(41,64)"/>
<path d="M0 0 C2.31 0 4.62 0 7 0 C7 1.32 7 2.64 7 4 C4.08482708 2.92598892 2.22189824 2.22189824 0 0 Z " fill="#CED2DB" transform="translate(172,58)"/>
<path d="M0 0 C0 0.33 0 0.66 0 1 C-1.98 1 -3.96 1 -6 1 C-6.33 1.99 -6.66 2.98 -7 4 C-8.32 3.67 -9.64 3.34 -11 3 C-7.48550811 -0.37391222 -4.73940561 -0.27342725 0 0 Z " fill="#6F7583" transform="translate(109,58)"/>
</svg>
